<svg width="2500" height="2770" viewBox="0 0 2500 2770" fill="none" xmlns="http://www.w3.org/2000/svg">
<path fill-rule="evenodd" clip-rule="evenodd" d="M685.29 479.134C538.594 505.218 388.728 508.276 241.091 488.197C232.641 725.456 227.466 966.984 248.371 1202.9C267.638 1420.28 310.704 1638.27 408.327 1835.03C515.042 2050.07 673.858 2212.83 875.418 2341.27L875.769 2341.48C835.89 2237.31 801.887 2130.04 778.644 2021.1C778.558 2013.46 777 2005.9 774.053 1998.85C769.785 1977.41 765.974 1955.83 762.622 1934.12C761.246 1925.61 762.01 1916.88 764.844 1908.74C759.383 1897.62 755.919 1885.62 754.611 1873.3C744.78 1788.16 745.408 1702.12 756.482 1617.13C756.482 1616.34 756.716 1615.58 756.833 1614.79C747.102 1600.17 738.929 1584.57 732.449 1568.24C732.157 1567.48 731.923 1566.84 731.66 1566.08L722.245 1539.45L687.629 1478.05C681.832 1467.91 679.664 1456.1 681.482 1444.57C683.3 1433.04 688.995 1422.47 697.628 1414.6C711.272 1401.97 724.916 1389.37 738.56 1376.8C756.102 1341.48 789.608 1319.58 826.271 1305.81L830.481 1265.9C826.973 1260.89 823.513 1255.9 820.102 1250.93L819.137 1249.44C796.683 1213.95 779.375 1174.74 773.41 1132.9C772.365 1126.08 772.703 1119.12 774.404 1112.44C766.039 1105.44 760.103 1095.97 757.447 1085.39C749.816 1055.77 746.575 1025.18 747.828 994.613C754.348 837.931 875.331 712.153 1029.41 691.278C1039.98 689.825 1050.74 691.695 1060.2 696.628C1073.42 693.665 1086.8 691.508 1100.28 690.167C1103.84 689.772 1107.43 689.772 1110.98 690.167C1261.67 706.364 1382.89 822.699 1401.04 969.557C1414.54 973.033 1426.37 981.185 1434.43 992.561C1442.48 1003.94 1446.25 1017.8 1445.04 1031.69C1443.84 1045.58 1437.75 1058.59 1427.86 1068.41C1417.97 1078.24 1404.91 1084.23 1391.01 1085.34H1389.64L1360.14 1086.89C1357.36 1093.15 1354.12 1099.21 1350.46 1105.01C1374.41 1119.63 1402.74 1138.66 1414.78 1157.41C1427.79 1177.67 1431.71 1201.26 1423.56 1223.51C1430.33 1222.43 1437.17 1221.71 1444.02 1221.35C1452.01 1216.11 1461.28 1213.17 1470.83 1212.84C1498.37 1211.79 1543.92 1207.14 1565.85 1187.81C1574.83 1179.75 1586.36 1175.09 1598.42 1174.65C1607.15 1124.33 1615.82 1074 1624.41 1023.67C1626.81 1009.58 1629.47 995.139 1632.02 980.667C1631.29 980.17 1630.58 979.643 1629.88 979.117C1624.26 974.993 1619.57 969.743 1616.1 963.702C1612.62 957.661 1610.45 950.962 1609.71 944.033C1609.01 938.185 1608.25 931.928 1607.63 925.409C1540.71 914.328 1500.65 858.719 1488.17 781.124C1484.72 768.961 1480.83 755.834 1477.21 742.56C1470.45 745.267 1463.18 746.481 1455.91 746.118C1448.64 745.754 1441.53 743.823 1435.08 740.455L737.185 467.994C737.185 467.994 690.64 478.198 685.29 479.134ZM1142.03 314.617L1519.34 462.79C1522.56 459.511 1526.04 456.5 1529.74 453.785C1541.02 435.747 1558.41 422.377 1578.75 416.128C1462.3 374.157 1351.77 317.297 1249.92 246.962C1214.97 271.092 1179.01 293.644 1142.03 314.617V314.617ZM1805.07 477.35L1805.86 478.11H1809.31L1805.07 477.321V477.35ZM1837.46 482.964C1976.87 505.441 2118.82 507.204 2258.74 488.197C2267.19 725.427 2272.37 966.955 2251.43 1202.84C2232.17 1420.22 2189.1 1638.18 2091.45 1834.95C2000.81 2017.33 1872.87 2162.4 1712.68 2280.61C1706.83 2189.68 1687.71 2099.63 1660.05 2012.82C1657.93 2006.04 1654.43 1999.78 1649.77 1994.41C1645.11 1989.05 1639.4 1984.71 1632.98 1981.66C1620.08 1918.46 1600.15 1856.9 1573.54 1798.14C1579.1 1798.81 1584.65 1799.74 1590.15 1800.88C1601.55 1803.36 1613.45 1801.87 1623.9 1796.68C1634.34 1791.48 1642.7 1782.88 1647.6 1772.29C1672.36 1719.66 1684.44 1663.32 1670.43 1609.5C1772.35 1568.57 1857.29 1502.96 1920.29 1409.87C1925.3 1402.46 1928.32 1393.89 1929.06 1384.99C1945.86 1358.5 1959.28 1330.02 1969 1300.2C1978.65 1295.04 1986.41 1286.95 1991.16 1277.1C2001.49 1255.93 2013.24 1234.8 2024.14 1213.89C2031.69 1199.45 2039.23 1184.98 2046.6 1170.44L2049.52 1165.01C2057.63 1161.07 2064.51 1155.01 2069.43 1147.46C2086.41 1122.15 2097.89 1093.55 2103.11 1063.52C2147.55 1036.92 2169.22 993.59 2175.48 943.185C2204.22 923.844 2225.44 895.198 2235.55 862.06C2245.67 828.922 2244.07 793.312 2231.03 761.213C2228.47 754.608 2224.54 748.619 2219.5 743.641C2214.46 738.662 2208.42 734.806 2201.79 732.327C2199.46 712.91 2193.85 694.028 2185.21 676.484C2186.31 664.345 2184.18 652.13 2179.04 641.078C2166.35 614.034 2141.03 602.485 2114.08 598.392C2098.73 581.99 2077.59 573.511 2054.46 571.026C2035.84 543.104 2006.16 529.421 1971.22 533.69C1945.35 518.428 1917.17 516.148 1890.56 526.644C1878.9 505.993 1859.96 490.429 1837.44 482.993L1837.46 482.964Z" fill="url(#paint0_linear_20_25)"/>
<path fill-rule="evenodd" clip-rule="evenodd" d="M747.828 2537.02C-24.4408 2043.61 -21.1077 1245.58 9.62049 421.127C10.2035 395.034 16.5752 369.397 28.2754 346.068C39.9755 322.738 56.7119 302.299 77.2752 286.227C117.388 253.891 164.226 240.676 214.69 247.4L676.372 428.144C516.029 456.641 351.911 456.571 191.592 427.939C159.636 1280.05 174.196 1955.9 847.585 2384.89C888.049 2412.18 929.624 2437.83 972.31 2461.85C1073.62 2333.85 1233.34 2167.05 1255.91 2149.89C1137.42 2201.21 1030.96 2276.71 943.336 2371.56C891.158 2242.24 853.149 2121.8 829.312 2010.25C856.463 2012.92 887.045 2009.21 921.058 1999.11C884.687 2001.98 852.623 1998.5 824.867 1988.67C820.657 1967.51 816.973 1946.66 813.816 1926.14C848.257 1941.73 894.062 1936.31 951.23 1909.88C859.816 1927.11 811.389 1912.98 805.951 1867.49C796.683 1782.08 797.648 1697.41 807.647 1624.06C845.275 1644.96 898.867 1658.12 955.937 1624.96C871.442 1655 812.919 1629.66 780.369 1548.95L769.463 1518.01L732.624 1452.61L781.655 1407.5C791.908 1378.55 822.675 1357.79 873.957 1345.19L882.991 1260.93C893.536 1273.66 905.065 1286.87 917.578 1300.55C917.578 1300.55 930.004 1301.6 954.505 1303.79C949.69 1303.03 938.454 1300.41 920.794 1295.93C899.528 1272.79 880.122 1248.01 862.759 1221.81C841.747 1188.33 829.058 1156.24 824.692 1125.57C836.724 1109.82 842.316 1090.08 840.334 1070.37L807.618 1072.59C801.264 1047.84 798.585 1022.3 799.665 996.776C805.132 865.355 907.053 760.102 1036.46 742.56C976.848 753.127 923.099 784.966 885.191 832.166C847.283 879.366 827.791 938.718 830.335 999.203C832.778 980.585 840.783 963.137 853.302 949.142C865.821 935.147 882.272 925.255 900.504 920.76C872.105 872.304 902.658 832.512 992.162 801.385L950.879 806.53C994.803 769.953 1048.67 747.357 1105.54 741.653C1248.81 757.032 1357.39 877.81 1351.49 1019.64V1020.02L1385.34 1019.52C1386.29 1019.36 1387.27 1019.4 1388.21 1019.63C1389.14 1019.85 1390.03 1020.27 1390.8 1020.85C1391.57 1021.43 1392.22 1022.15 1392.7 1022.99C1393.18 1023.83 1393.49 1024.75 1393.61 1025.71C1393.72 1026.67 1393.64 1027.64 1393.37 1028.57C1393.1 1029.49 1392.64 1030.35 1392.03 1031.1C1391.41 1031.84 1390.65 1032.45 1389.8 1032.9C1388.94 1033.34 1388 1033.6 1387.04 1033.67L1337.89 1036.25L1319.41 1037.5V1037.85L1077.71 1054.14L1318.42 1047.62C1315.67 1064.19 1307.42 1079.68 1293.65 1094.11C1298.47 1108 1301.66 1122.4 1303.19 1137.03V1137.03C1329.97 1153.4 1363.88 1174.01 1371.31 1185.59C1376.59 1193.83 1377.5 1201.27 1374.03 1207.9C1370.87 1213.92 1364.05 1218.6 1353.56 1221.93C1347.52 1223.8 1341.34 1225.19 1335.08 1226.08C1345.96 1233.59 1353.3 1240.57 1357.1 1247.05C1358.94 1249.7 1360.06 1252.79 1360.35 1256.01C1360.64 1259.22 1360.1 1262.46 1358.77 1265.41C1356.34 1270.49 1351.25 1274.82 1343.56 1278.36C1332.17 1282.96 1320.21 1286.05 1308.01 1287.54C1308.01 1293.01 1307.69 1298.5 1307.37 1303.94C1321.17 1312.46 1330.03 1319.89 1333.94 1326.25C1335.32 1328.11 1336.21 1330.28 1336.55 1332.57C1336.89 1334.86 1336.65 1337.2 1335.87 1339.38C1339.58 1331.77 1337.26 1323.69 1328.91 1315.11C1379.09 1286.73 1420.84 1272.74 1454.17 1273.15C1475.61 1279.84 1505.45 1281.58 1543.69 1278.39C1520.55 1280.73 1496.91 1276.19 1472.76 1264.79C1531.64 1262.57 1574.12 1249.9 1600.18 1226.78C1606.02 1230.68 1606.76 1246.56 1602.4 1274.41C1541.22 1294.64 1455.9 1328.61 1346.46 1376.3C1334.76 1372 1319.17 1370.12 1299.68 1370.69C1301.44 1366.03 1302.96 1361.29 1304.24 1356.48C1312.25 1354.92 1319.95 1352.08 1327.04 1348.06V1348.06C1324.3 1349.33 1321.43 1350.31 1318.48 1350.98C1312.65 1352.31 1306.72 1353.18 1300.76 1353.59C1299.3 1360.54 1297.61 1367.45 1295.7 1374.31C1309.19 1376.64 1322.54 1379.7 1335.7 1383.47C1312.31 1399.2 1281.86 1420.98 1244.36 1448.81C1268.74 1428.23 1304.17 1407.41 1350.64 1386.36C1377.93 1375.19 1403.13 1364.9 1426.25 1355.49C1533.45 1311.9 1597.17 1287.06 1617.4 1280.96L1633.48 1275.96C1670.18 1065.67 1689.67 951.41 1691.95 933.185L1661.34 937.98C1656.9 900.947 1657.3 879.175 1662.54 872.665C1592.55 886.757 1551.39 852.598 1539.07 770.189C1526.13 724.228 1518.72 694.991 1516.85 682.477C1540.83 681.425 1556.42 690.313 1563.63 709.142C1565.53 700.78 1567.17 692.359 1568.48 683.91L1496.12 660.52C1495.19 661.719 1494.19 662.918 1493.2 664.087C1490.43 668.02 1487.3 671.682 1483.84 675.022C1476.6 682.729 1468.13 689.189 1458.79 694.143V693.851H1458.64L212.497 207.521C185.628 167.174 215.42 105.191 249.657 82.9707C249.657 82.9707 618.044 239.185 1388.88 496.793L278.105 45.4011C245.117 61.9453 219.176 89.7961 205.012 123.873C205.233 102.87 212.058 82.4686 224.521 65.561C236.984 48.6533 254.452 36.097 274.45 29.6716L1520.54 518.954C1523.35 527.253 1525.44 535.784 1526.76 544.449L1529.69 545.414C1529.69 544.332 1529.89 543.25 1529.95 542.139C1532.05 543.981 1534.1 545.794 1536.06 547.607C1554.52 564.584 1566.21 580.723 1571.14 596.023V595.848V596.403C1572.18 599.614 1572.92 602.912 1573.37 606.256C1582.02 646.913 1583.45 688.778 1577.58 729.929L1585.27 746.214C1603.35 708.076 1609.45 665.355 1602.77 623.68C1596.09 582.005 1576.94 543.332 1547.84 512.756C1549.43 507.668 1552.2 503.029 1555.92 499.217C1559.65 495.406 1564.22 492.531 1569.27 490.828C1571.54 482.532 1576.69 475.313 1583.79 470.462C1590.9 465.611 1599.49 463.443 1608.05 464.347C1616.6 465.25 1624.56 469.165 1630.49 475.393C1636.42 481.62 1639.95 489.754 1640.44 498.342C1646.69 506.236 1649.85 510.037 1649.85 510.037C1652.25 501.816 1657.78 494.864 1665.25 490.672C1672.71 486.481 1681.53 485.386 1689.8 487.621C1698.06 489.856 1705.12 495.244 1709.46 502.627C1713.8 510.011 1715.07 518.801 1713 527.111C1715.86 519.565 1721.28 513.267 1728.32 509.324C1735.36 505.381 1743.56 504.047 1751.49 505.555C1759.42 507.064 1766.56 511.318 1771.66 517.571C1776.76 523.824 1779.49 531.674 1779.37 539.742C1785.33 534.877 1792.45 531.662 1800.04 530.422C1807.63 529.181 1815.41 529.958 1822.61 532.674C1829.8 535.39 1836.16 539.949 1841.03 545.896C1845.91 551.842 1849.13 558.965 1850.39 566.552C1855.61 586.999 1859.88 607.64 1863.19 628.476C1869.7 614.649 1877.85 601.653 1887.46 589.766C1911.53 565.909 1935.48 565.909 1959.3 589.766C1992.43 576.844 2012.9 588.081 2020.69 623.477C2056.15 617.805 2077.22 626.03 2083.9 648.153C2124.21 647.685 2139.98 658.737 2131.21 681.308C2125.48 664.935 2108.28 657.879 2079.61 660.14C2070.47 657.801 2064.43 665.793 2061.51 684.115C2054.69 674.194 2039.46 668.492 2015.84 667.011C2014.5 646.545 2030.32 640.863 2063.32 649.966C2057.05 641.943 2048.04 636.505 2038.02 634.689C2028 632.872 2017.66 634.802 2008.97 640.113C2003.32 630.911 1994.33 624.25 1983.89 621.525C1973.44 618.801 1962.34 620.223 1952.92 625.494C1952.52 620.847 1951.03 616.361 1948.56 612.398C1946.1 608.436 1942.74 605.109 1938.76 602.686C1934.77 600.263 1930.27 598.813 1925.62 598.453C1920.97 598.093 1916.3 598.833 1911.99 600.613C1899.34 607.63 1903.24 613.244 1923.69 617.454C1927.15 619.992 1929.65 623.629 1930.78 627.771C1931.91 631.914 1931.6 636.316 1929.9 640.26C1928.2 644.204 1925.22 647.456 1921.44 649.485C1917.65 651.513 1913.29 652.198 1909.07 651.428C1918.92 657.042 1930.06 659.994 1941.4 659.994C1931.25 665.583 1919.59 667.833 1908.08 666.427C1896.57 665.021 1885.8 660.029 1877.29 652.159C1875.05 648.189 1873.35 643.942 1872.23 639.528L1867.93 666.368C1869.1 678.063 1869.97 689.757 1870.53 701.452C1884.88 695.605 1900.06 696.102 1916.08 702.943C1926.73 702.329 1930.7 708.557 1928.22 721.713C1928.61 724.569 1928.21 727.476 1927.08 730.127C1925.95 732.777 1924.13 735.073 1921.8 736.769C1919.47 738.466 1916.72 739.501 1913.85 739.763C1910.99 740.026 1908.1 739.507 1905.5 738.262C1902.97 743.934 1906.31 751.925 1915.53 762.236C1921.49 771.475 1917.75 779.174 1904.3 785.333C1896.87 792.721 1896.49 801.706 1903.16 812.29C1915.27 820.769 1914.75 827.084 1901.61 831.236C1898.48 840.789 1898.03 851.018 1900.3 860.811C1902.57 870.605 1907.49 879.588 1914.5 886.786C1930.95 889.711 1947.87 888.455 1963.71 883.132C1952.34 894.286 1938.22 902.226 1922.78 906.141C1922.78 906.141 1923.71 910.731 1925.7 919.941C1944.84 924.148 1964.8 922.456 1982.95 915.088C1976.72 922.544 1968.89 928.488 1960.03 932.469C1951.17 936.45 1941.52 938.365 1931.81 938.068C1931.38 951.322 1925.6 971.613 1914.45 998.94L1921.64 999.612C1933.49 975.988 1973.9 982.226 2042.88 1018.32C2047.84 1018.91 2052.86 1018.45 2057.62 1016.97C2062.38 1015.5 2066.79 1013.04 2070.54 1009.76C2074.3 1006.48 2077.32 1002.45 2079.42 997.924C2081.52 993.402 2082.65 988.488 2082.73 983.502C2073.92 982.528 2066.95 973.62 2061.8 956.78C2045.84 951.845 2032.39 940.929 2024.29 926.315C2028.01 926.907 2031.81 926.644 2035.42 925.545C2039.02 924.445 2042.32 922.539 2045.08 919.97C2029.25 922.493 2013.06 918.817 1999.88 909.708C2004.33 909.338 2008.49 907.348 2011.57 904.115C2014.66 900.882 2016.44 896.63 2016.6 892.166C1998.32 900.561 1977.88 903.035 1958.13 899.241C1976.2 892.258 1991 878.761 1999.61 861.408C1990.38 867.904 1979.33 871.312 1968.04 871.144C1954.24 856.606 1944.29 838.856 1939.09 819.502C1933.89 800.148 1933.6 779.801 1938.25 760.306V760.306C1938.53 757.624 1939.25 755.006 1940.38 752.559C1940.88 750.921 1941.43 749.284 1941.99 747.676L1942.66 749.401C1950.04 752.106 1958.03 752.719 1965.74 751.171C1973.44 749.623 1980.57 745.975 1986.34 740.63V740.63C1979.95 746.063 1971.74 748.885 1963.36 748.531C1954.98 748.176 1947.04 744.672 1941.13 738.718C1935.23 732.765 1931.78 724.801 1931.49 716.417C1931.2 708.034 1934.08 699.85 1939.56 693.5C1943.26 710.048 1963.83 716.87 2001.25 713.966C2016.14 732.833 2036.71 734.958 2062.94 720.339C2062.03 700.848 2064.27 692.574 2069.67 695.517C2094.63 712.63 2117.05 712.806 2136.91 696.043C2149.97 721.636 2153.75 746.623 2148.26 771.007L2139.07 770.218L2182.93 780.509C2191.57 801.677 2192.61 825.183 2185.89 847.034C2179.16 868.885 2165.08 887.734 2146.03 900.381L2134.34 896.113C2088.07 829.842 2032.8 796.882 1968.53 797.233C1968.53 797.233 1963.65 791.181 1953.92 779.135L1962.69 802.525C2018.53 797.613 2072.79 830.037 2125.04 892.663C2129.69 967.948 2106.01 1011.07 2054.38 1029.14C2053.84 1061 2044.11 1092.02 2026.34 1118.46C2021.55 1120.68 2016.57 1122.45 2011.45 1123.75C2009.12 1132.17 1951.46 1240.23 1944.65 1254.21C1949.18 1216.42 1945.33 1178.1 1933.36 1141.97C1943.57 1222.39 1923.37 1303.72 1876.73 1370.02C1901.69 1241.33 1899.17 1108.81 1869.33 981.163C1876.88 973.784 1882.06 964.314 1884.18 953.972C1886.31 943.629 1885.29 932.888 1881.26 923.128C1869.68 903.084 1862.34 880.872 1859.7 857.872C1857.06 834.872 1859.17 811.575 1865.91 789.427C1850.09 759.878 1848.27 733.311 1860.47 709.726C1861.82 660.167 1854.75 610.738 1839.57 563.541C1830.86 556.634 1820.09 552.827 1808.97 552.721C1797.85 552.615 1787.02 556.216 1778.17 562.956L1766.65 557.109C1767.77 554.383 1768.27 551.446 1768.13 548.504C1767.99 545.561 1767.21 542.686 1765.84 540.078C1764.47 537.471 1762.55 535.196 1760.2 533.412C1757.86 531.628 1755.15 530.379 1752.27 529.753C1749.4 529.126 1746.41 529.138 1743.54 529.786C1740.67 530.435 1737.97 531.705 1735.64 533.507C1733.31 535.309 1731.4 537.599 1730.05 540.217C1728.7 542.834 1727.94 545.716 1727.83 548.659C1718.45 543.285 1707.82 540.481 1697.01 540.531C1698.37 534.904 1697.56 528.968 1694.72 523.918C1691.89 518.868 1687.25 515.077 1681.74 513.307C1676.23 511.537 1670.25 511.919 1665 514.377C1659.76 516.835 1655.64 521.186 1653.48 526.556L1638.33 534.304C1625.49 542.091 1610.12 544.586 1595.47 541.262C1613.1 574.435 1623.97 610.78 1627.44 648.187C1630.9 685.594 1626.91 723.317 1615.67 759.166C1614.85 772.092 1618.63 784.892 1626.33 795.303C1634.04 805.714 1645.17 813.067 1657.77 816.062C1686.44 795.963 1720 783.992 1754.92 781.418C1789.83 778.845 1824.79 785.764 1856.09 801.443C1857.3 803.421 1858.04 805.65 1858.26 807.96C1858.48 810.27 1858.16 812.599 1857.34 814.767C1856.51 816.936 1855.2 818.886 1853.5 820.469C1851.81 822.052 1849.77 823.225 1847.55 823.897C1846.54 833.102 1846.4 842.383 1847.14 851.614C1849.98 855.738 1851.55 860.595 1851.68 865.598C1851.81 870.6 1850.49 875.533 1847.87 879.798C1854.48 888.134 1859.74 897.458 1863.46 907.428C1863.41 909.714 1862.75 911.946 1861.55 913.894C1860.35 915.842 1858.66 917.437 1856.64 918.514C1854.62 919.591 1852.35 920.112 1850.07 920.024C1847.78 919.936 1845.56 919.241 1843.63 918.011C1827.18 901.678 1796.57 897.234 1751.8 904.679C1734.12 983.849 1735.25 1066.06 1755.1 1144.72C1746.32 1127.06 1738.44 1108.97 1731.51 1090.51C1743.94 1162.76 1767.3 1235.7 1725.66 1321.8C1729.63 1308.04 1731.75 1293.82 1731.98 1279.5C1722.27 1321.13 1678.04 1327.21 1642.98 1327.18C1654.21 1357.65 1658.2 1393.18 1654.97 1433.78C1704.96 1424.69 1776.48 1405.13 1817.06 1389.93C1795.89 1403.96 1777.44 1415.33 1759.37 1422.09C1840.71 1404.19 1877.43 1380.63 1877.43 1380.63C1813.52 1475.05 1723.25 1540.54 1606.61 1577.1C1605.91 1580.03 1605.23 1582.95 1604.56 1585.87C1632.49 1630.7 1631.23 1685.4 1600.76 1749.95C1585.07 1746.65 1569.11 1744.86 1553.08 1744.63V1744.63C1546.59 1744.63 1540.12 1744.63 1533.66 1745.19C1473.14 1748.11 1372.86 1782.73 1318.56 1810.15C1379.96 1763.55 1477.23 1691.77 1527.41 1633.33C1345.64 1789.66 1189.19 1869.36 1105.89 1895.61C1203.46 1884.47 1298.19 1855.68 1385.46 1810.65C1429.53 1794 1471.2 1785.76 1510.48 1785.91C1613.95 1991.13 1620.23 2205.99 1563.1 2428.63C1609.26 2300.48 1625.55 2163.49 1610.73 2028.09C1650.1 2152.3 1667.11 2269.04 1661.75 2378.29C2325.58 1948.88 2340.05 1275.61 2308.27 427.618C2124.48 460.411 1935.96 455.653 1754.07 413.63C1572.17 371.608 1400.66 293.192 1249.89 183.108C1183.9 231.284 1113.78 273.521 1040.34 309.324C1036.21 301.076 1029.14 294.672 1020.52 291.373C949.963 263.812 879.531 235.861 809.226 207.521C928.59 168.323 1041.06 110.627 1142.53 36.5422C1173.54 13.4209 1211.18 0.930664 1249.86 0.930664C1288.54 0.930664 1326.18 13.4209 1357.19 36.5422C1488.15 132.103 1637.09 200.177 1795.04 236.666C1953 273.154 2116.71 277.303 2276.31 248.862C2301.95 244.253 2328.28 245.201 2353.52 251.642C2378.75 258.083 2402.32 269.868 2422.61 286.199C2442.9 302.53 2459.45 323.027 2471.14 346.305C2482.83 369.582 2489.38 395.098 2490.36 421.127C2521.15 1245.61 2524.42 2043.52 1752.3 2537.02C1615 2629.69 1466.26 2704.15 1309.79 2758.54C1271.2 2772.58 1228.9 2772.58 1190.3 2758.54C1033.85 2704.15 885.116 2629.69 747.828 2537.02V2537.02ZM1287.14 1359.14C1287.54 1357.5 1287.92 1355.84 1288.28 1354.17C1275.96 1354.54 1261.12 1354.25 1243.78 1353.29C1205.46 1351.54 1169.75 1348.56 1136.65 1344.35C1141.08 1325.01 1145.12 1307.62 1148.79 1292.16C1189.38 1298.63 1230.59 1300.3 1271.58 1297.16C1265.32 1311.54 1258.16 1326.31 1250.09 1341.45C1263.46 1342.1 1275.16 1342.32 1285.18 1342.12C1287.31 1340.72 1289.42 1339.2 1291.52 1337.97C1293.3 1327.45 1294.44 1316.83 1295.35 1306.22C1295.76 1300.49 1296.02 1294.75 1296.14 1289C1286.39 1290.13 1275.59 1291.02 1263.72 1291.66V1290.43C1225.99 1291.28 1188.26 1288.96 1150.92 1283.5C1155.54 1264.38 1159.53 1248.51 1162.88 1235.88C1206.22 1238.98 1249.72 1239.1 1293.07 1236.23C1292.75 1233.89 1292.4 1231.52 1292.02 1229.18C1244.46 1230.99 1199.91 1230.71 1158.37 1228.33C1151.32 1258.51 1145.11 1287.18 1139.75 1314.35C1134.39 1341.52 1129.78 1367.54 1125.92 1392.41C1129.14 1378.03 1132.19 1364.45 1135.07 1351.69C1169.67 1357.66 1204.72 1360.59 1239.83 1360.46C1238.89 1362.09 1237.93 1363.73 1236.91 1365.4L1249.42 1367.01L1258.19 1360.72C1268.89 1360.6 1278.56 1360.06 1287.19 1359.08L1287.14 1359.14ZM1314.79 1323.41C1312.43 1321.54 1309.65 1319.58 1306.46 1317.57C1305.64 1325.5 1304.56 1333.39 1303.22 1341.25L1308.01 1340.66C1308.92 1336.07 1309.76 1331.19 1310.58 1326.04L1314.79 1323.5V1323.41ZM1304.3 1150.39C1305.06 1172.72 1303.01 1195.06 1298.19 1216.87C1321.3 1216.19 1338.61 1214 1350.11 1210.29C1357.33 1207.96 1361.81 1205.27 1363.36 1202.17C1364.64 1199.71 1363.94 1196.32 1361.19 1192.05C1354.76 1182.02 1329.47 1165.74 1304.3 1150.5V1150.39ZM1145.98 1227.63C1082.79 1223.3 1026.79 1213.99 977.982 1199.68C1031.96 1217.52 1087.79 1229.16 1144.4 1234.39L1145.98 1227.63V1227.63ZM1134.28 1280.9C1078.51 1271.18 1024.19 1254.42 972.632 1231.02C1022.52 1258.55 1076.35 1278.21 1132.24 1289.29L1133.99 1280.87L1134.28 1280.9ZM1122.12 1342.3C1070.94 1335.05 1026.33 1324.74 988.303 1311.37C1031.37 1327.62 1075.72 1340.23 1120.89 1349.05L1122.12 1342.3ZM872.933 1110.95C835.237 1125.7 861.813 1184.34 952.663 1286.87C874.366 1190.66 847.789 1132.02 872.933 1110.95ZM1292.98 1237.51C1289.09 1251.38 1284.51 1265.04 1279.24 1278.45C1285.09 1277.98 1290.66 1277.43 1295.96 1276.81C1295.78 1263.63 1294.8 1250.48 1293.04 1237.43L1292.98 1237.51ZM1991.49 735.66L1996.4 736.829C1995.69 734.542 1995.21 732.192 1994.97 729.812C1994 731.872 1992.84 733.831 1991.49 735.66ZM2001.75 747.354C2015.39 767.996 2036.75 769.945 2065.84 753.202L2132.06 768.756C2134.07 755.991 2133.46 742.949 2130.27 730.426C2129.24 737.911 2125.72 744.83 2120.27 750.067C2114.83 755.305 2107.78 758.556 2100.26 759.295C2092.74 760.035 2085.19 758.221 2078.83 754.145C2072.47 750.069 2067.66 743.969 2065.19 736.829C2063.21 743.197 2059.51 748.892 2054.48 753.277C2049.46 757.662 2043.32 760.567 2036.74 761.668C2030.16 762.768 2023.41 762.02 2017.23 759.509C2011.05 756.997 2005.69 752.82 2001.75 747.442V747.354ZM2158.63 873.951C2176.57 856.896 2182.71 832.697 2177.05 801.355C2167.05 810.209 2159.95 821.868 2156.66 834.816C2153.38 847.763 2154.06 861.4 2158.63 873.951V873.951ZM1303.92 1228.74C1306.34 1244.13 1307.72 1259.66 1308.04 1275.23C1318.55 1273.89 1328.83 1271.2 1338.65 1267.22C1342.43 1265.92 1345.68 1263.43 1347.92 1260.11C1348.32 1258.94 1348.43 1257.69 1348.22 1256.47C1348.02 1255.25 1347.51 1254.1 1346.75 1253.13C1343.36 1247.28 1330.08 1235.82 1317.78 1227.92C1313.42 1228.28 1308.8 1228.54 1303.92 1228.74ZM1697.24 728.38C1698.84 683.821 1692.16 639.352 1677.57 597.222C1684.31 643.024 1683.6 689.616 1675.46 735.192C1668.45 737.745 1661.55 740.61 1654.76 743.787C1652.68 745.046 1651.12 747.019 1650.39 749.339C1649.65 751.659 1649.78 754.168 1650.76 756.397C1651.74 758.626 1653.49 760.425 1655.7 761.456C1657.9 762.487 1660.41 762.681 1662.74 762.002C1712.86 742.389 1767.36 736.77 1820.42 745.746C1822.28 745.679 1824.09 745.161 1825.71 744.238C1827.32 743.315 1828.69 742.015 1829.69 740.448C1830.69 738.881 1831.29 737.094 1831.45 735.242C1831.61 733.389 1831.31 731.526 1830.59 729.812C1823.17 727.678 1815.65 725.894 1808.11 724.462C1813.7 687.859 1808.76 650.42 1793.87 616.518C1794.82 651.607 1792.87 686.714 1788.03 721.48C1775.6 720.17 1763.09 719.779 1750.6 720.31C1751.72 682.188 1744.85 644.253 1730.43 608.946C1738.34 646.015 1739.33 684.226 1733.35 721.655C1721.17 723.024 1709.1 725.272 1697.24 728.38V728.38Z" fill="#003580"/>
<defs>
<linearGradient id="paint0_linear_20_25" x1="2122.73" y1="1481.94" x2="439.698" y2="1183.81" gradientUnits="userSpaceOnUse">
<stop stop-color="#006A4E"/>
<stop offset="1" stop-color="#F42A41"/>
</linearGradient>
</defs>
</svg>
