<svg width="2376" height="948" viewBox="0 0 2376 948" fill="none" xmlns="http://www.w3.org/2000/svg">
<path fill-rule="evenodd" clip-rule="evenodd" d="M234.887 164.165C184.712 173.087 133.454 174.133 82.9571 167.265C80.0671 248.415 78.2971 331.025 85.4471 411.715C92.0371 486.065 106.767 560.625 140.157 627.925C176.657 701.475 230.977 757.145 299.917 801.075L300.037 801.145C286.397 765.515 274.767 728.825 266.817 691.565C266.788 688.951 266.255 686.367 265.247 683.955C263.787 676.622 262.484 669.242 261.337 661.815C260.867 658.904 261.128 655.921 262.097 653.135C260.229 649.332 259.045 645.229 258.597 641.015C255.235 611.892 255.45 582.467 259.237 553.395C259.237 553.125 259.317 552.865 259.357 552.595C256.029 547.595 253.233 542.259 251.017 536.675C250.917 536.415 250.837 536.195 250.747 535.935L247.527 526.825L235.687 505.825C233.705 502.359 232.963 498.32 233.585 494.375C234.207 490.43 236.154 486.814 239.107 484.125C243.774 479.805 248.44 475.495 253.107 471.195C259.107 459.115 270.567 451.625 283.107 446.915L284.547 433.265C283.347 431.552 282.164 429.845 280.997 428.145L280.667 427.635C272.987 415.495 267.067 402.085 265.027 387.775C264.669 385.443 264.785 383.062 265.367 380.775C262.506 378.382 260.475 375.144 259.567 371.525C256.957 361.392 255.849 350.931 256.277 340.475C258.507 286.885 299.887 243.865 352.587 236.725C356.202 236.228 359.882 236.868 363.117 238.555C367.638 237.542 372.217 236.804 376.827 236.345C378.043 236.21 379.271 236.21 380.487 236.345C432.027 241.885 473.487 281.675 479.697 331.905C484.315 333.095 488.361 335.883 491.116 339.774C493.872 343.665 495.158 348.407 494.746 353.157C494.335 357.908 492.252 362.358 488.869 365.718C485.485 369.077 481.02 371.128 476.267 371.505H475.797L465.707 372.035C464.755 374.179 463.649 376.251 462.397 378.235C470.587 383.235 480.277 389.745 484.397 396.155C488.847 403.085 490.187 411.155 487.397 418.765C489.716 418.396 492.052 418.149 494.397 418.025C497.13 416.234 500.302 415.227 503.567 415.115C512.987 414.755 528.567 413.165 536.067 406.555C539.139 403.797 543.081 402.204 547.207 402.055C550.194 384.842 553.157 367.629 556.097 350.415C556.917 345.595 557.827 340.655 558.697 335.705C558.447 335.535 558.207 335.355 557.967 335.175C556.046 333.765 554.44 331.969 553.252 329.903C552.064 327.837 551.32 325.545 551.067 323.175C550.827 321.175 550.567 319.035 550.357 316.805C527.467 313.015 513.767 293.995 509.497 267.455C508.317 263.295 506.987 258.805 505.747 254.265C503.435 255.191 500.951 255.607 498.463 255.482C495.976 255.358 493.545 254.697 491.337 253.545L252.637 160.355C252.637 160.355 236.717 163.845 234.887 164.165ZM391.107 107.895L520.157 158.575C521.258 157.454 522.449 156.424 523.717 155.495C527.572 149.326 533.523 144.753 540.477 142.615C500.648 128.26 462.845 108.812 428.007 84.7554C416.054 93.0087 403.754 100.722 391.107 107.895V107.895ZM617.887 163.555L618.157 163.815H619.337L617.887 163.545V163.555ZM628.967 165.475C676.647 173.163 725.201 173.766 773.057 167.265C775.947 248.405 777.717 331.015 770.557 411.695C763.967 486.045 749.237 560.595 715.837 627.895C684.837 690.275 641.077 739.895 586.287 780.325C584.287 749.225 577.747 718.425 568.287 688.735C567.561 686.417 566.364 684.273 564.77 682.438C563.177 680.604 561.222 679.119 559.027 678.075C554.616 656.459 547.796 635.404 538.697 615.305C540.597 615.535 542.497 615.855 544.377 616.245C548.276 617.092 552.348 616.584 555.92 614.806C559.492 613.028 562.351 610.086 564.027 606.465C572.497 588.465 576.627 569.195 571.837 550.785C606.697 536.785 635.747 514.345 657.297 482.505C659.009 479.972 660.042 477.042 660.297 473.995C666.041 464.936 670.63 455.193 673.957 444.995C677.256 443.23 679.909 440.464 681.537 437.095C685.067 429.855 689.087 422.625 692.817 415.475C695.397 410.535 697.977 405.585 700.497 400.615L701.497 398.755C704.269 397.409 706.623 395.336 708.307 392.755C714.115 384.098 718.04 374.317 719.827 364.045C735.027 354.945 742.437 340.125 744.577 322.885C754.41 316.27 761.666 306.472 765.126 295.138C768.586 283.804 768.039 271.624 763.577 260.645C762.702 258.386 761.358 256.338 759.635 254.635C757.911 252.932 755.847 251.613 753.577 250.765C752.78 244.124 750.863 237.666 747.907 231.665C748.283 227.513 747.555 223.336 745.797 219.555C741.457 210.305 732.797 206.355 723.577 204.955C718.327 199.345 711.097 196.445 703.187 195.595C696.817 186.045 686.667 181.365 674.717 182.825C665.867 177.605 656.227 176.825 647.127 180.415C643.138 173.352 636.66 168.029 628.957 165.485L628.967 165.475Z" fill="url(#paint0_linear_20_12)"/>
<path fill-rule="evenodd" clip-rule="evenodd" d="M256.277 868.025C-7.86293 699.265 -6.72291 426.315 3.78709 144.325C3.9865 135.401 6.16583 126.632 10.1676 118.653C14.1695 110.673 19.8938 103.682 26.9271 98.1852C40.6471 87.1252 56.6671 82.6053 73.9271 84.9053L231.837 146.725C176.995 156.472 120.861 156.448 66.0271 146.655C55.0971 438.105 60.0771 669.265 290.397 815.995C304.237 825.329 318.457 834.102 333.057 842.315C367.707 798.535 422.337 741.485 430.057 735.615C389.53 753.169 353.116 778.994 323.147 811.435C305.3 767.202 292.3 726.009 284.147 687.855C293.434 688.769 303.894 687.499 315.527 684.045C303.087 685.025 292.12 683.835 282.627 680.475C281.187 673.235 279.927 666.105 278.847 659.085C290.627 664.419 306.294 662.565 325.847 653.525C294.58 659.419 278.017 654.585 276.157 639.025C272.987 609.815 273.317 580.855 276.737 555.765C289.607 562.915 307.937 567.415 327.457 556.075C298.557 566.349 278.54 557.682 267.407 530.075L263.677 519.495L251.077 497.125L267.847 481.695C271.354 471.795 281.877 464.692 299.417 460.385L302.507 431.565C306.114 435.919 310.057 440.435 314.337 445.115C314.337 445.115 318.587 445.475 326.967 446.225C325.32 445.965 321.477 445.069 315.437 443.535C308.163 435.621 301.526 427.145 295.587 418.185C288.4 406.732 284.06 395.759 282.567 385.265C286.682 379.879 288.595 373.13 287.917 366.385L276.727 367.145C274.554 358.682 273.638 349.945 274.007 341.215C275.877 296.265 310.737 260.265 354.997 254.265C334.609 257.88 316.225 268.77 303.26 284.913C290.294 301.057 283.627 321.358 284.497 342.045C285.333 335.677 288.071 329.71 292.353 324.923C296.635 320.136 302.261 316.753 308.497 315.215C298.784 298.642 309.234 285.032 339.847 274.385L325.727 276.145C340.75 263.635 359.174 255.906 378.627 253.955C427.627 259.215 464.767 300.525 462.747 349.035V349.165L474.327 348.995C474.653 348.941 474.986 348.953 475.306 349.031C475.627 349.108 475.929 349.251 476.193 349.448C476.457 349.646 476.679 349.896 476.844 350.181C477.009 350.467 477.114 350.784 477.153 351.111C477.193 351.439 477.165 351.771 477.072 352.088C476.979 352.405 476.823 352.699 476.613 352.954C476.403 353.209 476.144 353.418 475.85 353.57C475.557 353.721 475.236 353.811 474.907 353.835L458.097 354.715L451.777 355.145V355.265L369.107 360.835L451.437 358.605C450.497 364.272 447.674 369.572 442.967 374.505C444.612 379.258 445.706 384.183 446.227 389.185V389.185C455.387 394.785 466.987 401.835 469.527 405.795C471.334 408.615 471.644 411.159 470.457 413.425C469.377 415.485 467.044 417.085 463.457 418.225C461.391 418.865 459.278 419.34 457.137 419.645C460.857 422.212 463.367 424.602 464.667 426.815C465.296 427.724 465.679 428.78 465.779 429.88C465.879 430.981 465.692 432.088 465.237 433.095C464.407 434.835 462.667 436.315 460.037 437.525C456.139 439.101 452.051 440.156 447.877 440.665C447.877 442.535 447.767 444.415 447.657 446.275C452.377 449.189 455.407 451.732 456.747 453.905C457.217 454.542 457.523 455.285 457.639 456.068C457.754 456.851 457.674 457.65 457.407 458.395C458.674 455.795 457.88 453.029 455.027 450.095C472.187 440.389 486.467 435.605 497.867 435.745C505.2 438.032 515.407 438.629 528.487 437.535C520.574 438.335 512.487 436.785 504.227 432.885C524.367 432.125 538.894 427.792 547.807 419.885C549.807 421.219 550.06 426.649 548.567 436.175C527.64 443.095 498.46 454.712 461.027 471.025C457.027 469.552 451.694 468.912 445.027 469.105C445.629 467.513 446.15 465.891 446.587 464.245C449.326 463.713 451.96 462.74 454.387 461.365V461.365C453.448 461.799 452.466 462.135 451.457 462.365C449.463 462.817 447.437 463.115 445.397 463.255C444.897 465.635 444.32 467.999 443.667 470.345C448.28 471.142 452.847 472.186 457.347 473.475C449.347 478.855 438.934 486.305 426.107 495.825C434.447 488.785 446.564 481.665 462.457 474.465C471.79 470.645 480.41 467.125 488.317 463.905C524.984 448.999 546.777 440.502 553.697 438.415L559.197 436.705C571.75 364.779 578.417 325.699 579.197 319.465L568.727 321.105C567.207 308.439 567.344 300.992 569.137 298.765C545.197 303.585 531.12 291.902 526.907 263.715C522.48 247.995 519.947 237.995 519.307 233.715C527.507 233.355 532.84 236.395 535.307 242.835C535.957 239.975 536.517 237.095 536.967 234.205L512.217 226.205C511.897 226.615 511.557 227.025 511.217 227.425C510.271 228.771 509.2 230.023 508.017 231.165C505.539 233.801 502.644 236.011 499.447 237.705V237.605H499.397L73.1771 71.2653C63.9871 57.4653 74.1771 36.2653 85.8871 28.6653C85.8871 28.6653 211.887 82.0953 475.537 170.205L95.6171 15.8152C84.3344 21.4739 75.4616 30.9997 70.6171 42.6553C70.6926 35.4714 73.0271 28.4935 77.2898 22.7106C81.5526 16.9276 87.5273 12.633 94.3671 10.4353L520.567 177.785C521.532 180.624 522.244 183.542 522.697 186.505L523.697 186.835C523.697 186.465 523.767 186.095 523.787 185.715C524.507 186.345 525.207 186.965 525.877 187.585C532.19 193.392 536.19 198.912 537.877 204.145V204.085V204.275C538.231 205.373 538.486 206.501 538.637 207.645C541.599 221.551 542.086 235.87 540.077 249.945L542.707 255.515C548.891 242.471 550.978 227.859 548.693 213.605C546.408 199.351 539.859 186.123 529.907 175.665C530.45 173.925 531.397 172.338 532.671 171.035C533.945 169.731 535.51 168.748 537.237 168.165C538.014 165.328 539.774 162.859 542.204 161.199C544.633 159.54 547.573 158.799 550.499 159.108C553.425 159.417 556.145 160.756 558.175 162.886C560.204 165.016 561.41 167.798 561.577 170.735C563.717 173.435 564.797 174.735 564.797 174.735C565.618 171.923 567.508 169.545 570.063 168.112C572.617 166.679 575.632 166.304 578.459 167.068C581.287 167.833 583.702 169.676 585.186 172.201C586.67 174.726 587.105 177.733 586.397 180.575C587.374 177.994 589.229 175.84 591.636 174.491C594.044 173.143 596.85 172.686 599.561 173.202C602.272 173.718 604.715 175.174 606.459 177.312C608.203 179.451 609.137 182.136 609.097 184.895C611.134 183.231 613.572 182.132 616.168 181.708C618.763 181.283 621.425 181.549 623.886 182.478C626.346 183.407 628.519 184.966 630.187 187C631.855 189.034 632.958 191.47 633.387 194.065C635.174 201.059 636.634 208.119 637.767 215.245C639.994 210.516 642.781 206.071 646.067 202.005C654.3 193.845 662.49 193.845 670.637 202.005C681.97 197.585 688.97 201.429 691.637 213.535C703.764 211.595 710.97 214.409 713.257 221.975C727.044 221.815 732.437 225.595 729.437 233.315C727.477 227.715 721.594 225.302 711.787 226.075C708.66 225.275 706.597 228.009 705.597 234.275C703.264 230.882 698.057 228.932 689.977 228.425C689.517 221.425 694.93 219.482 706.217 222.595C704.071 219.851 700.992 217.991 697.564 217.37C694.136 216.749 690.6 217.409 687.627 219.225C685.696 216.078 682.621 213.8 679.048 212.868C675.475 211.936 671.68 212.422 668.457 214.225C668.319 212.636 667.808 211.101 666.967 209.746C666.125 208.391 664.976 207.253 663.613 206.424C662.249 205.595 660.71 205.099 659.12 204.976C657.529 204.853 655.932 205.106 654.457 205.715C650.13 208.115 651.464 210.035 658.457 211.475C659.642 212.343 660.497 213.587 660.883 215.004C661.269 216.421 661.163 217.927 660.583 219.276C660.003 220.625 658.982 221.737 657.688 222.431C656.393 223.124 654.902 223.359 653.457 223.095C656.827 225.015 660.639 226.025 664.517 226.025C661.043 227.937 657.055 228.707 653.12 228.226C649.184 227.745 645.499 226.037 642.587 223.345C641.823 221.987 641.242 220.535 640.857 219.025L639.387 228.205C639.787 232.205 640.084 236.205 640.277 240.205C645.184 238.205 650.377 238.375 655.857 240.715C659.497 240.505 660.857 242.635 660.007 247.135C660.14 248.112 660.006 249.106 659.62 250.013C659.233 250.919 658.608 251.705 657.812 252.285C657.015 252.865 656.076 253.219 655.095 253.309C654.113 253.399 653.126 253.221 652.237 252.795C651.37 254.735 652.514 257.469 655.667 260.995C657.707 264.155 656.427 266.789 651.827 268.895C649.287 271.422 649.157 274.495 651.437 278.115C655.577 281.015 655.4 283.175 650.907 284.595C649.836 287.863 649.681 291.362 650.459 294.711C651.236 298.061 652.916 301.133 655.317 303.595C660.943 304.596 666.731 304.166 672.147 302.345C668.259 306.161 663.428 308.876 658.147 310.215C658.147 310.215 658.467 311.785 659.147 314.935C665.691 316.374 672.518 315.795 678.727 313.275C676.598 315.826 673.918 317.858 670.888 319.22C667.858 320.582 664.557 321.237 661.237 321.135C661.09 325.669 659.11 332.609 655.297 341.955L657.757 342.185C661.81 334.105 675.634 336.239 699.227 348.585C700.921 348.785 702.638 348.628 704.267 348.124C705.897 347.619 707.402 346.779 708.686 345.656C709.971 344.534 711.005 343.155 711.724 341.608C712.442 340.061 712.828 338.381 712.857 336.675C709.844 336.342 707.457 333.295 705.697 327.535C700.236 325.847 695.639 322.114 692.867 317.115C694.139 317.318 695.441 317.228 696.673 316.852C697.905 316.476 699.035 315.824 699.977 314.945C694.564 315.808 689.027 314.551 684.517 311.435C686.04 311.309 687.463 310.628 688.517 309.522C689.572 308.416 690.184 306.962 690.237 305.435C683.986 308.307 676.993 309.153 670.237 307.855C676.418 305.467 681.481 300.85 684.427 294.915C681.269 297.137 677.488 298.303 673.627 298.245C668.909 293.273 665.506 287.202 663.727 280.582C661.947 273.962 661.848 267.003 663.437 260.335V260.335C663.533 259.418 663.78 258.523 664.167 257.685C664.337 257.125 664.527 256.565 664.717 256.015L664.947 256.605C667.472 257.531 670.203 257.74 672.84 257.211C675.476 256.681 677.915 255.434 679.887 253.605V253.605C677.701 255.464 674.895 256.429 672.028 256.308C669.162 256.186 666.446 254.988 664.425 252.951C662.404 250.915 661.226 248.191 661.126 245.324C661.026 242.456 662.012 239.657 663.887 237.485C665.154 243.145 672.187 245.479 684.987 244.485C690.08 250.939 697.114 251.665 706.087 246.665C705.774 239.999 706.54 237.169 708.387 238.175C716.927 244.029 724.594 244.089 731.387 238.355C735.854 247.109 737.147 255.655 735.267 263.995L732.127 263.725L747.127 267.245C750.081 274.485 750.439 282.525 748.138 289.999C745.838 297.472 741.021 303.92 734.507 308.245L730.507 306.785C714.68 284.119 695.777 272.845 673.797 272.965C673.797 272.965 672.127 270.895 668.797 266.775L671.797 274.775C690.897 273.095 709.457 284.185 727.327 305.605C728.917 331.355 720.817 346.105 703.157 352.285C702.976 363.181 699.645 373.791 693.567 382.835C691.93 383.595 690.226 384.201 688.477 384.645C687.677 387.525 667.957 424.485 665.627 429.265C667.177 416.34 665.859 403.233 661.767 390.875C665.259 418.381 658.35 446.199 642.397 468.875C650.933 424.859 650.071 379.535 639.867 335.875C642.45 333.351 644.218 330.112 644.945 326.575C645.673 323.037 645.325 319.363 643.947 316.025C639.985 309.17 637.474 301.572 636.571 293.706C635.668 285.839 636.391 277.871 638.697 270.295C633.284 260.189 632.664 251.102 636.837 243.035C637.296 226.084 634.878 209.178 629.687 193.035C626.707 190.673 623.024 189.371 619.221 189.334C615.419 189.298 611.712 190.53 608.687 192.835L604.747 190.835C605.129 189.903 605.302 188.898 605.254 187.892C605.206 186.886 604.938 185.902 604.469 185.01C604 184.119 603.342 183.34 602.541 182.73C601.739 182.12 600.813 181.693 599.829 181.479C598.844 181.264 597.825 181.268 596.842 181.49C595.86 181.712 594.937 182.146 594.14 182.763C593.343 183.379 592.691 184.162 592.229 185.058C591.768 185.953 591.507 186.939 591.467 187.945C588.26 186.107 584.624 185.148 580.927 185.165C581.394 183.24 581.114 181.21 580.146 179.483C579.177 177.756 577.59 176.459 575.704 175.854C573.818 175.248 571.773 175.379 569.98 176.22C568.187 177.06 566.778 178.549 566.037 180.385L560.857 183.035C556.464 185.699 551.208 186.552 546.197 185.415C552.228 196.761 555.944 209.193 557.13 221.987C558.317 234.781 556.949 247.684 553.107 259.945C552.827 264.366 554.118 268.744 556.753 272.305C559.388 275.866 563.197 278.381 567.507 279.405C577.311 272.531 588.792 268.436 600.733 267.556C612.674 266.676 624.631 269.043 635.337 274.405C635.752 275.082 636.006 275.844 636.08 276.634C636.154 277.424 636.046 278.221 635.764 278.963C635.482 279.704 635.033 280.371 634.453 280.913C633.873 281.454 633.177 281.855 632.417 282.085C632.07 285.234 632.023 288.408 632.277 291.565C633.246 292.976 633.786 294.637 633.83 296.348C633.875 298.059 633.422 299.746 632.527 301.205C634.788 304.056 636.587 307.245 637.857 310.655C637.84 311.437 637.614 312.201 637.205 312.867C636.795 313.533 636.215 314.079 635.525 314.447C634.835 314.816 634.06 314.994 633.278 314.964C632.496 314.933 631.737 314.696 631.077 314.275C625.45 308.689 614.98 307.169 599.667 309.715C593.619 336.794 594.006 364.913 600.797 391.815C597.791 385.778 595.097 379.59 592.727 373.275C596.977 397.985 604.967 422.935 590.727 452.385C592.083 447.679 592.81 442.813 592.887 437.915C589.567 452.155 574.437 454.235 562.447 454.225C566.287 464.645 567.654 476.799 566.547 490.685C583.647 487.575 608.107 480.885 621.987 475.685C614.747 480.485 608.437 484.375 602.257 486.685C630.077 480.565 642.637 472.505 642.637 472.505C620.777 504.799 589.9 527.199 550.007 539.705C549.767 540.705 549.537 541.705 549.307 542.705C558.86 558.039 558.427 576.745 548.007 598.825C542.642 597.694 537.18 597.085 531.697 597.005V597.005C529.477 597.005 527.267 597.005 525.057 597.195C504.357 598.195 470.057 610.035 451.487 619.415C472.487 603.475 505.757 578.925 522.917 558.935C460.747 612.405 407.237 639.665 378.747 648.645C412.118 644.833 444.518 634.987 474.367 619.585C489.44 613.892 503.694 611.072 517.127 611.125C552.517 681.315 554.667 754.805 535.127 830.955C550.915 787.124 556.487 740.267 551.417 693.955C564.884 736.442 570.7 776.369 568.867 813.735C795.917 666.865 800.867 436.585 789.997 146.545C727.137 157.762 662.657 156.134 600.442 141.761C538.228 127.388 479.568 100.568 427.997 62.9153C405.428 79.393 381.445 93.8394 356.327 106.085C354.913 103.264 352.494 101.074 349.547 99.9453C325.414 90.5186 301.324 80.9586 277.277 71.2653C318.103 57.8583 356.572 38.1247 391.277 12.7852C401.882 4.87702 414.758 0.60498 427.987 0.60498C441.216 0.60498 454.092 4.87702 464.697 12.7852C509.489 45.4702 560.431 68.7535 614.458 81.2338C668.485 93.714 724.478 95.133 779.067 85.4053C787.836 83.8287 796.84 84.153 805.473 86.3561C814.105 88.5593 822.164 92.5899 829.104 98.1757C836.044 103.761 841.705 110.772 845.703 118.734C849.701 126.695 851.942 135.423 852.277 144.325C862.807 426.325 863.927 699.235 599.837 868.025C552.877 899.722 502.002 925.191 448.487 943.795C435.286 948.595 420.818 948.595 407.617 943.795C354.105 925.191 303.234 899.722 256.277 868.025V868.025ZM440.737 465.155C440.877 464.595 441.007 464.025 441.127 463.455C436.914 463.582 431.84 463.482 425.907 463.155C412.8 462.555 400.587 461.535 389.267 460.095C390.78 453.482 392.164 447.532 393.417 442.245C407.302 444.457 421.398 445.031 435.417 443.955C433.277 448.875 430.827 453.925 428.067 459.105C432.64 459.325 436.64 459.402 440.067 459.335C440.797 458.855 441.517 458.335 442.237 457.915C442.847 454.315 443.237 450.685 443.547 447.055C443.687 445.095 443.777 443.132 443.817 441.165C440.484 441.552 436.787 441.855 432.727 442.075V441.655C419.823 441.946 406.918 441.153 394.147 439.285C395.727 432.745 397.09 427.315 398.237 422.995C413.06 424.057 427.939 424.097 442.767 423.115C442.657 422.315 442.537 421.505 442.407 420.705C426.14 421.325 410.904 421.229 396.697 420.415C394.284 430.735 392.16 440.542 390.327 449.835C388.494 459.129 386.917 468.029 385.597 476.535C386.697 471.615 387.74 466.972 388.727 462.605C400.56 464.648 412.549 465.652 424.557 465.605C424.237 466.165 423.907 466.725 423.557 467.295L427.837 467.845L430.837 465.695C434.497 465.655 437.804 465.469 440.757 465.135L440.737 465.155ZM450.197 452.935C449.387 452.295 448.437 451.625 447.347 450.935C447.067 453.649 446.697 456.349 446.237 459.035L447.877 458.835C448.187 457.265 448.477 455.595 448.757 453.835L450.197 452.965V452.935ZM446.607 393.755C446.868 401.393 446.166 409.033 444.517 416.495C452.424 416.262 458.344 415.512 462.277 414.245C464.747 413.445 466.277 412.525 466.807 411.465C467.247 410.625 467.007 409.465 466.067 408.005C463.867 404.575 455.217 399.005 446.607 393.795V393.755ZM392.457 420.175C370.844 418.695 351.69 415.509 334.997 410.615C353.459 416.716 372.555 420.698 391.917 422.485L392.457 420.175V420.175ZM388.457 438.395C369.38 435.07 350.801 429.338 333.167 421.335C350.229 430.75 368.643 437.473 387.757 441.265L388.357 438.385L388.457 438.395ZM384.297 459.395C366.79 456.915 351.534 453.389 338.527 448.815C353.256 454.375 368.426 458.687 383.877 461.705L384.297 459.395ZM299.067 380.265C286.174 385.312 295.264 405.369 326.337 440.435C299.557 407.529 290.467 387.472 299.067 380.265ZM442.737 423.555C441.407 428.298 439.838 432.971 438.037 437.555C440.037 437.395 441.944 437.209 443.757 436.995C443.694 432.489 443.36 427.991 442.757 423.525L442.737 423.555ZM681.647 251.905L683.327 252.305C683.086 251.523 682.922 250.719 682.837 249.905C682.508 250.61 682.109 251.28 681.647 251.905ZM685.157 255.905C689.824 262.965 697.13 263.632 707.077 257.905L729.727 263.225C730.416 258.859 730.208 254.399 729.117 250.115C728.764 252.675 727.559 255.042 725.697 256.833C723.834 258.625 721.423 259.736 718.851 259.989C716.279 260.242 713.697 259.622 711.521 258.228C709.345 256.834 707.702 254.747 706.857 252.305C706.18 254.483 704.912 256.431 703.194 257.931C701.475 259.431 699.374 260.424 697.125 260.801C694.875 261.177 692.565 260.921 690.452 260.062C688.339 259.203 686.506 257.775 685.157 255.935V255.905ZM738.817 299.205C744.95 293.372 747.05 285.095 745.117 274.375C741.696 277.404 739.266 281.391 738.142 285.82C737.019 290.248 737.254 294.912 738.817 299.205V299.205ZM446.477 420.555C447.305 425.817 447.776 431.13 447.887 436.455C451.48 435.996 454.999 435.075 458.357 433.715C459.649 433.271 460.762 432.418 461.527 431.285C461.665 430.885 461.7 430.457 461.63 430.039C461.561 429.622 461.388 429.229 461.127 428.895C459.967 426.895 455.427 422.975 451.217 420.275C449.727 420.395 448.147 420.485 446.477 420.555ZM581.007 249.415C581.551 234.175 579.27 218.965 574.277 204.555C576.584 220.221 576.341 236.157 573.557 251.745C571.157 252.619 568.797 253.599 566.477 254.685C565.764 255.116 565.233 255.79 564.981 256.584C564.729 257.378 564.774 258.236 565.109 258.998C565.443 259.761 566.043 260.376 566.797 260.728C567.551 261.081 568.408 261.148 569.207 260.915C586.347 254.207 604.989 252.285 623.137 255.355C623.773 255.332 624.393 255.155 624.945 254.839C625.497 254.524 625.964 254.079 626.306 253.543C626.649 253.007 626.856 252.396 626.91 251.762C626.964 251.129 626.863 250.492 626.617 249.905C624.077 249.175 621.507 248.565 618.927 248.075C620.84 235.556 619.151 222.751 614.057 211.155C614.382 223.157 613.713 235.164 612.057 247.055C607.806 246.607 603.528 246.474 599.257 246.655C599.64 233.616 597.29 220.641 592.357 208.565C595.062 221.244 595.401 234.313 593.357 247.115C589.19 247.584 585.063 248.352 581.007 249.415V249.415Z" fill="#003580"/>
<path d="M1078.79 239.524C1061.02 239.524 1043.62 240.079 1026.59 241.19C1009.56 241.93 992.533 243.226 975.503 245.077C977.725 235.081 978.835 224.53 978.835 213.424C978.835 208.612 978.465 203.799 977.725 198.986C976.984 193.803 976.244 188.065 975.503 181.771C1003.27 184.363 1030.85 185.844 1058.24 186.214C1086.01 186.584 1113.78 186.769 1141.54 186.769C1168.2 186.769 1195.41 186.584 1223.17 186.214C1250.94 185.844 1279.44 184.363 1308.69 181.771C1307.95 186.214 1307.21 191.212 1306.47 196.765C1305.73 202.318 1305.36 208.612 1305.36 215.645C1305.36 221.199 1305.73 226.567 1306.47 231.749C1307.21 236.932 1307.95 241.375 1308.69 245.077C1291.66 243.226 1274.63 241.93 1257.6 241.19C1240.57 240.079 1223.17 239.524 1205.4 239.524C1204.66 251.741 1204.11 265.809 1203.74 281.727C1203.74 297.276 1203.74 313.01 1203.74 328.929V358.916C1203.74 380.388 1203.74 400.564 1203.74 419.445C1204.11 438.325 1204.29 456.65 1204.29 474.42C1204.66 492.19 1205.22 509.59 1205.96 526.62C1206.7 543.649 1207.62 561.234 1208.73 579.374C1189.48 577.523 1174.3 576.227 1163.2 575.487C1152.46 574.747 1144.5 574.376 1139.32 574.376C1123.77 574.376 1110.63 575.117 1099.89 576.598C1089.53 577.708 1081.2 578.634 1074.9 579.374C1076.01 569.008 1076.94 557.347 1077.68 544.39C1078.42 531.432 1078.98 517.735 1079.35 503.297C1080.09 488.859 1080.46 474.235 1080.46 459.427C1080.83 444.619 1081.01 430.366 1081.01 416.668V367.245V343.367C1081.01 329.299 1080.83 313.195 1080.46 295.055C1080.09 276.545 1079.53 258.034 1078.79 239.524Z" fill="#003580"/>
<path d="M1489.9 350.586C1508.04 350.586 1521.37 345.218 1529.89 334.482C1538.77 323.746 1543.21 308.753 1543.21 289.502C1543.21 280.617 1542.47 272.287 1540.99 264.513C1539.51 256.738 1536.55 250.075 1532.11 244.522C1528.04 238.969 1522.3 234.711 1514.89 231.749C1507.49 228.418 1497.86 226.752 1486.02 226.752H1477.69C1476.58 226.752 1475.28 226.752 1473.8 226.752C1472.69 226.752 1471.39 226.937 1469.91 227.307C1469.91 232.12 1469.73 237.303 1469.36 242.856C1469.36 248.039 1469.36 255.073 1469.36 263.958V297.832V350.586H1489.9ZM1469.36 453.319V492.19C1469.36 502.186 1469.36 510.331 1469.36 516.624C1469.73 522.547 1469.91 528.286 1469.91 533.839C1481.02 533.839 1491.2 533.469 1500.45 532.728C1509.71 531.988 1517.67 529.396 1524.33 524.954C1531 520.141 1536.18 512.737 1539.88 502.741C1543.58 492.746 1545.43 478.678 1545.43 460.538C1545.43 439.066 1540.99 422.591 1532.11 411.115C1523.59 399.268 1510.45 393.345 1492.68 393.345H1469.36V453.319ZM1551.54 368.356C1567.83 369.837 1583.38 372.613 1598.19 376.686C1613.37 380.388 1626.7 386.126 1638.17 393.9C1650.02 401.675 1659.46 411.855 1666.49 424.442C1673.53 437.03 1677.04 452.578 1677.04 471.089C1677.04 490.71 1672.42 507.369 1663.16 521.067C1654.28 534.764 1642.61 546.056 1628.18 554.941C1613.74 563.455 1597.63 569.749 1579.86 573.821C1562.09 577.523 1544.51 579.374 1527.11 579.374C1509.34 579.374 1489.35 578.634 1467.14 577.153C1445.29 575.302 1423.82 574.376 1402.72 574.376C1392.35 574.376 1381.8 574.932 1371.07 576.042C1360.7 577.153 1350.52 578.264 1340.53 579.374C1341.64 561.234 1342.38 546.426 1342.75 534.949C1343.49 523.473 1344.04 512.922 1344.41 503.297C1345.15 493.301 1345.52 483.305 1345.52 473.31C1345.89 462.944 1346.08 450.172 1346.08 434.993V391.679V339.48V305.606C1346.08 296.351 1345.89 288.391 1345.52 281.727C1345.52 274.694 1345.52 267.289 1345.52 259.515L1342.19 181.771C1368.48 185.103 1394.39 186.769 1419.93 186.769C1437.7 186.769 1454.92 186.029 1471.58 184.548C1488.24 182.697 1505.08 181.771 1522.11 181.771C1536.55 181.771 1552.28 182.882 1569.31 185.103C1586.34 187.325 1602.26 191.952 1617.07 198.986C1631.88 205.65 1644.1 215.275 1653.72 227.862C1663.72 240.079 1668.71 256.553 1668.71 277.285C1668.71 283.949 1667.23 292.093 1664.27 301.719C1661.68 311.344 1656.13 320.784 1647.61 330.04C1639.1 338.925 1627.25 346.884 1612.07 353.918C1596.89 360.582 1576.72 364.654 1551.54 366.135V368.356Z" fill="#003580"/>
<path d="M1938.97 294.5C1938.97 280.062 1937.31 268.585 1933.97 260.07C1930.64 251.185 1926.2 244.337 1920.65 239.524C1915.09 234.711 1908.62 231.564 1901.21 230.084C1894.18 228.233 1886.59 227.307 1878.44 227.307C1875.11 227.307 1871.78 227.492 1868.45 227.862C1865.49 227.862 1862.52 228.047 1859.56 228.418C1859.56 242.485 1859.38 255.443 1859.01 267.289C1859.01 278.766 1859.01 289.872 1859.01 300.608V332.261V365.024C1860.86 365.394 1862.52 365.765 1864.01 366.135C1865.49 366.135 1867.15 366.135 1869 366.135H1880.11C1891.59 366.135 1901.03 364.284 1908.43 360.582C1916.2 356.88 1922.31 351.882 1926.76 345.588C1931.2 339.295 1934.34 331.705 1936.2 322.821C1938.05 313.936 1938.97 304.495 1938.97 294.5ZM2067.25 291.168C2067.25 313.75 2062.99 332.816 2054.48 348.365C2045.96 363.543 2034.49 375.76 2020.05 385.015C2005.98 394.271 1989.69 400.934 1971.18 405.007C1953.04 408.709 1933.97 410.56 1913.98 410.56C1901.03 410.56 1890.11 410.375 1881.22 410.004C1872.34 409.264 1864.93 408.524 1859.01 407.783C1859.01 418.889 1859.01 433.142 1859.01 450.542C1859.38 467.572 1859.75 484.786 1860.12 502.186C1860.49 519.586 1861.04 535.505 1861.78 549.943C1862.52 564.011 1863.45 573.821 1864.56 579.374C1854.19 578.264 1843.83 577.153 1833.46 576.042C1823.1 574.932 1812.73 574.376 1802.37 574.376C1789.78 574.376 1777.19 574.932 1764.6 576.042C1752.39 576.783 1739.99 577.893 1727.4 579.374C1728.88 561.604 1730.18 545.315 1731.29 530.507C1732.4 515.699 1733.14 501.26 1733.51 487.193C1734.25 472.754 1734.62 458.131 1734.62 443.323C1734.99 428.145 1735.17 411.485 1735.17 393.345C1735.17 379.647 1734.99 364.099 1734.62 346.699C1734.62 328.929 1734.25 310.604 1733.51 291.723C1733.14 272.843 1732.58 253.962 1731.84 235.081C1731.1 216.201 1730.18 198.431 1729.06 181.771C1741.28 183.623 1753.87 184.918 1766.83 185.659C1780.15 186.399 1792.37 186.769 1803.48 186.769C1822.73 186.769 1841.98 186.029 1861.23 184.548C1880.85 182.697 1899.73 181.771 1917.87 181.771C1935.64 181.771 1953.41 183.437 1971.18 186.769C1989.32 190.101 2005.42 195.839 2019.49 203.984C2033.56 212.128 2045.04 223.235 2053.92 237.303C2062.81 251.37 2067.25 269.326 2067.25 291.168Z" fill="#003580"/>
<path d="M2241.67 523.288C2245.38 523.288 2252.78 523.288 2263.89 523.288C2274.99 522.918 2287.21 522.547 2300.54 522.177C2314.23 521.437 2327.93 520.696 2341.63 519.956C2355.33 519.216 2366.62 518.105 2375.5 516.624C2374.76 520.696 2374.02 525.509 2373.28 531.062C2372.91 536.245 2372.73 542.168 2372.73 548.832C2372.73 554.015 2372.91 559.198 2373.28 564.381C2374.02 569.194 2374.76 574.191 2375.5 579.374C2352.18 577.523 2331.26 576.227 2312.75 575.487C2294.61 574.747 2276.47 574.376 2258.33 574.376C2238.34 574.376 2215.39 574.747 2189.47 575.487C2163.56 576.227 2136.72 577.523 2108.95 579.374C2112.29 563.085 2114.51 545.87 2115.62 527.73C2116.73 509.59 2117.28 492.561 2117.28 476.642V447.766C2117.28 429.996 2117.1 413.892 2116.73 399.453C2116.73 384.645 2116.54 370.762 2116.17 357.805C2116.17 344.848 2115.99 332.446 2115.62 320.599C2115.25 308.382 2114.88 295.795 2114.51 282.838C2113.77 265.809 2113.21 248.409 2112.84 230.639C2112.47 212.499 2111.36 196.21 2109.51 181.771C2132.83 185.103 2156.53 186.769 2180.59 186.769C2192.07 186.769 2202.99 186.399 2213.35 185.659C2224.09 184.918 2235.01 183.623 2246.12 181.771C2245.01 191.397 2244.08 204.354 2243.34 220.643C2242.97 236.562 2242.41 253.592 2241.67 271.732C2241.3 289.872 2240.93 307.827 2240.56 325.597C2240.56 343.367 2240.56 358.731 2240.56 371.688V397.232C2240.56 402.415 2240.56 411.115 2240.56 423.332C2240.93 435.178 2241.12 447.766 2241.12 461.093C2241.12 474.42 2241.12 487.007 2241.12 498.854C2241.49 510.701 2241.67 518.845 2241.67 523.288Z" fill="#003580"/>
<path d="M997.967 670.819C997.967 668.484 997.927 666.35 997.846 664.418C997.846 662.485 997.766 661.076 997.605 660.191C996.397 660.191 994.908 660.231 993.136 660.312C991.365 660.392 989.473 660.513 987.46 660.674C985.447 660.754 983.394 660.915 981.301 661.157C979.207 661.318 977.275 661.519 975.503 661.761C975.664 660.875 975.785 659.989 975.866 659.104C976.027 658.218 976.107 657.332 976.107 656.447C976.107 655.561 976.027 654.675 975.866 653.79C975.785 652.904 975.664 652.018 975.503 651.133C978.241 651.213 980.697 651.294 982.871 651.374C985.125 651.455 987.379 651.535 989.634 651.616C991.969 651.616 994.465 651.656 997.122 651.737C999.859 651.737 1003.12 651.737 1006.9 651.737C1010.69 651.737 1013.91 651.737 1016.57 651.737C1019.3 651.656 1021.8 651.616 1024.05 651.616C1026.31 651.535 1028.48 651.455 1030.58 651.374C1032.75 651.294 1035.08 651.213 1037.58 651.133C1037.42 652.018 1037.26 652.904 1037.1 653.79C1037.02 654.675 1036.98 655.561 1036.98 656.447C1036.98 657.332 1037.02 658.218 1037.1 659.104C1037.26 659.989 1037.42 660.875 1037.58 661.761C1035.97 661.519 1034.16 661.318 1032.15 661.157C1030.13 660.915 1028.12 660.754 1026.11 660.674C1024.17 660.513 1022.32 660.392 1020.55 660.312C1018.78 660.231 1017.29 660.191 1016.08 660.191C1016 660.593 1015.92 661.157 1015.84 661.882C1015.84 662.606 1015.84 663.452 1015.84 664.418V670.819V701.012C1015.84 707.695 1015.92 713.653 1016.08 718.886C1016.24 724.039 1016.49 729.112 1016.81 734.104C1015.44 733.943 1013.95 733.862 1012.34 733.862C1010.73 733.862 1008.92 733.862 1006.9 733.862C1004.89 733.862 1003.08 733.862 1001.47 733.862C999.859 733.862 998.37 733.943 997.001 734.104C997.323 729.112 997.565 724.039 997.726 718.886C997.887 713.653 997.967 707.695 997.967 701.012V670.819Z" fill="#003580"/>
<path d="M1061.26 715.746C1061.26 712.284 1061.26 709.667 1061.26 707.896C1061.34 706.044 1061.38 704.434 1061.38 703.065C1059.69 704.031 1057.88 704.836 1055.94 705.481C1054.09 706.044 1052.36 706.809 1050.75 707.775C1049.22 708.661 1047.93 709.909 1046.89 711.519C1045.92 713.129 1045.44 715.464 1045.44 718.524C1045.44 721.503 1046.04 723.798 1047.25 725.408C1048.54 726.938 1050.23 727.703 1052.32 727.703C1054.98 727.703 1057.11 726.696 1058.72 724.683C1060.41 722.67 1061.26 719.691 1061.26 715.746ZM1032.64 682.896C1036.02 680.158 1039.64 678.065 1043.51 676.616C1047.45 675.167 1051.36 674.442 1055.22 674.442C1058.44 674.442 1061.38 674.804 1064.04 675.529C1066.77 676.254 1069.11 677.421 1071.04 679.031C1073.05 680.561 1074.58 682.574 1075.63 685.07C1076.76 687.566 1077.32 690.585 1077.32 694.128C1077.32 699.281 1077.24 704.071 1077.08 708.5C1077 712.848 1076.96 717.195 1076.96 721.543C1076.96 723.476 1077.08 725.005 1077.32 726.133C1077.64 727.179 1078.09 727.984 1078.65 728.548C1079.21 729.112 1079.94 729.474 1080.82 729.635C1081.79 729.796 1082.88 729.877 1084.08 729.877V732.775C1081.75 733.741 1079.78 734.466 1078.17 734.949C1076.56 735.432 1074.83 735.674 1072.97 735.674C1069.99 735.674 1067.58 734.949 1065.73 733.5C1063.88 732.05 1062.47 729.957 1061.5 727.22C1059.65 729.796 1057.47 731.849 1054.98 733.379C1052.56 734.909 1049.5 735.674 1045.8 735.674C1042.74 735.674 1040.12 735.271 1037.95 734.466C1035.78 733.661 1033.96 732.534 1032.51 731.084C1031.15 729.555 1030.14 727.864 1029.5 726.012C1028.85 724.079 1028.53 722.147 1028.53 720.215C1028.53 717.558 1028.93 715.263 1029.74 713.331C1030.62 711.398 1031.83 709.748 1033.36 708.379C1034.97 707.01 1036.86 705.883 1039.04 704.997C1041.21 704.031 1043.67 703.226 1046.4 702.582C1049.79 701.777 1052.44 701.092 1054.37 700.529C1056.39 699.885 1057.88 699.281 1058.84 698.717C1059.81 698.073 1060.41 697.389 1060.65 696.664C1060.98 695.939 1061.14 695.054 1061.14 694.007C1061.14 691.109 1060.09 688.653 1058 686.64C1055.98 684.547 1053.17 683.5 1049.54 683.5C1048.17 683.5 1046.77 683.701 1045.32 684.104C1043.87 684.426 1042.46 684.909 1041.09 685.553C1039.8 686.197 1038.59 686.922 1037.47 687.727C1036.42 688.452 1035.61 689.257 1035.05 690.142H1034.21L1032.64 682.896Z" fill="#003580"/>
<path d="M1106.79 685.07C1109.04 681.688 1111.66 679.072 1114.64 677.22C1117.7 675.368 1121.16 674.442 1125.03 674.442C1128.65 674.442 1131.75 675.448 1134.33 677.461C1136.98 679.394 1139.04 682.212 1140.49 685.915C1142.9 682.212 1145.72 679.394 1148.94 677.461C1152.16 675.448 1155.58 674.442 1159.21 674.442C1165.24 674.442 1169.87 676.213 1173.09 679.756C1176.4 683.218 1178.05 688.854 1178.05 696.664C1178.05 700.77 1177.97 704.394 1177.8 707.534C1177.64 710.674 1177.56 713.814 1177.56 716.954C1177.56 719.53 1177.6 722.348 1177.68 725.408C1177.84 728.387 1178.01 731.286 1178.17 734.104C1177.12 733.943 1175.79 733.862 1174.18 733.862C1172.57 733.862 1170.88 733.862 1169.11 733.862C1167.34 733.862 1165.65 733.862 1164.04 733.862C1162.43 733.862 1161.1 733.943 1160.05 734.104C1160.61 729.917 1160.98 725.005 1161.14 719.369C1161.3 713.653 1161.38 707.131 1161.38 699.804C1161.38 694.732 1160.53 691.028 1158.84 688.693C1157.15 686.278 1154.78 685.07 1151.72 685.07C1149.79 685.07 1148.17 685.513 1146.89 686.398C1145.68 687.284 1144.71 688.452 1143.99 689.901C1143.26 691.27 1142.78 692.759 1142.54 694.369C1142.3 695.98 1142.18 697.51 1142.18 698.959V707.654C1142.18 712.566 1142.22 717.195 1142.3 721.543C1142.46 725.891 1142.74 730.078 1143.14 734.104C1142.1 733.943 1140.77 733.862 1139.16 733.862C1137.63 733.862 1135.94 733.862 1134.08 733.862C1132.23 733.862 1130.54 733.862 1129.01 733.862C1127.48 733.862 1126.15 733.943 1125.03 734.104C1125.43 730.078 1125.67 725.891 1125.75 721.543C1125.91 717.195 1125.99 712.566 1125.99 707.654V700.287C1125.99 695.456 1125.39 691.712 1124.18 689.055C1122.97 686.398 1120.68 685.07 1117.3 685.07C1113.67 685.07 1111.02 686.64 1109.33 689.78C1107.64 692.92 1106.79 697.268 1106.79 702.824V707.654C1106.79 712.566 1106.83 717.195 1106.91 721.543C1107.07 725.891 1107.35 730.078 1107.76 734.104C1106.71 733.943 1105.38 733.862 1103.77 733.862C1102.24 733.862 1100.55 733.862 1098.7 733.862C1096.85 733.862 1095.16 733.862 1093.63 733.862C1092.1 733.862 1090.77 733.943 1089.64 734.104C1090.04 730.078 1090.28 725.891 1090.36 721.543C1090.53 717.195 1090.61 712.566 1090.61 707.654V702.824C1090.61 697.912 1090.53 693.323 1090.36 689.055C1090.28 684.708 1090.04 680.36 1089.64 676.012C1091.09 676.173 1092.5 676.334 1093.87 676.495C1095.32 676.576 1096.77 676.616 1098.22 676.616C1099.66 676.616 1101.07 676.576 1102.44 676.495C1103.89 676.334 1105.42 676.173 1107.03 676.012L1106.55 685.07H1106.79Z" fill="#003580"/>
<path d="M1216.94 700.77V714.055H1186.86V700.77H1216.94Z" fill="#003580"/>
<path d="M1268.39 711.157C1268.39 705.521 1267.1 701.334 1264.52 698.596C1262.03 695.778 1258.36 694.369 1253.53 694.369C1252.4 694.369 1251.44 694.41 1250.63 694.49C1249.83 694.49 1249.06 694.49 1248.34 694.49C1248.34 696.181 1248.3 697.952 1248.22 699.804C1248.22 701.576 1248.22 703.709 1248.22 706.205C1248.22 708.137 1248.22 710.11 1248.22 712.123C1248.3 714.136 1248.34 716.108 1248.34 718.041C1248.34 719.973 1248.34 721.745 1248.34 723.355C1248.42 724.965 1248.46 726.294 1248.46 727.34C1249.59 727.421 1250.63 727.501 1251.6 727.582C1252.56 727.582 1253.73 727.582 1255.1 727.582C1256.87 727.582 1258.56 727.22 1260.17 726.495C1261.78 725.77 1263.19 724.724 1264.4 723.355C1265.61 721.906 1266.57 720.175 1267.3 718.162C1268.02 716.149 1268.39 713.814 1268.39 711.157ZM1267.54 672.147C1267.54 670.215 1267.3 668.403 1266.82 666.712C1266.41 664.941 1265.69 663.452 1264.64 662.244C1263.6 660.956 1262.27 659.949 1260.66 659.225C1259.05 658.419 1257.03 658.017 1254.62 658.017C1252.85 658.017 1251.6 658.057 1250.87 658.138C1250.23 658.138 1249.5 658.218 1248.7 658.379C1248.54 661.358 1248.42 664.378 1248.34 667.437C1248.26 670.497 1248.22 673.073 1248.22 675.167C1248.22 677.34 1248.22 679.434 1248.22 681.447C1248.3 683.379 1248.34 685.392 1248.34 687.485H1253.77C1255.46 687.485 1257.11 687.163 1258.72 686.519C1260.41 685.875 1261.9 684.949 1263.19 683.741C1264.48 682.453 1265.53 680.843 1266.33 678.911C1267.14 676.978 1267.54 674.724 1267.54 672.147ZM1230.34 684.587C1230.34 677.904 1230.26 671.986 1230.1 666.833C1229.94 661.6 1229.7 656.366 1229.38 651.133C1230.74 651.294 1232.23 651.455 1233.84 651.616C1235.46 651.696 1237.27 651.737 1239.28 651.737C1242.74 651.737 1246.36 651.656 1250.15 651.495C1253.93 651.254 1257.56 651.133 1261.02 651.133C1264.64 651.133 1267.94 651.495 1270.92 652.22C1273.9 652.944 1276.48 654.072 1278.65 655.601C1280.83 657.051 1282.48 658.983 1283.6 661.398C1284.81 663.733 1285.41 666.551 1285.41 669.853C1285.41 673.154 1284.73 676.012 1283.36 678.427C1281.99 680.762 1280.3 682.735 1278.29 684.345C1276.36 685.875 1274.22 687.083 1271.89 687.968C1269.63 688.854 1267.58 689.458 1265.73 689.78V690.022C1267.58 690.102 1269.75 690.545 1272.25 691.35C1274.75 692.075 1277.12 693.242 1279.38 694.852C1281.63 696.463 1283.52 698.556 1285.05 701.133C1286.66 703.629 1287.47 706.688 1287.47 710.311C1287.47 714.659 1286.66 718.363 1285.05 721.422C1283.52 724.482 1281.43 726.978 1278.77 728.91C1276.2 730.843 1273.22 732.212 1269.83 733.017C1266.45 733.741 1262.95 734.104 1259.33 734.104C1256.11 734.104 1253.09 734.063 1250.27 733.983C1247.53 733.902 1244.63 733.862 1241.57 733.862C1239.4 733.862 1237.15 733.862 1234.81 733.862C1232.56 733.862 1230.74 733.943 1229.38 734.104C1229.7 729.112 1229.94 724.039 1230.1 718.886C1230.26 713.653 1230.34 707.695 1230.34 701.012V684.587Z" fill="#003580"/>
<path d="M1326.64 715.746C1326.64 712.284 1326.64 709.667 1326.64 707.896C1326.72 706.044 1326.76 704.434 1326.76 703.065C1325.07 704.031 1323.26 704.836 1321.32 705.481C1319.47 706.044 1317.74 706.809 1316.13 707.775C1314.6 708.661 1313.31 709.909 1312.27 711.519C1311.3 713.129 1310.82 715.464 1310.82 718.524C1310.82 721.503 1311.42 723.798 1312.63 725.408C1313.92 726.938 1315.61 727.703 1317.7 727.703C1320.36 727.703 1322.49 726.696 1324.1 724.683C1325.79 722.67 1326.64 719.691 1326.64 715.746ZM1298.01 682.896C1301.4 680.158 1305.02 678.065 1308.88 676.616C1312.83 675.167 1316.73 674.442 1320.6 674.442C1323.82 674.442 1326.76 674.804 1329.42 675.529C1332.15 676.254 1334.49 677.421 1336.42 679.031C1338.43 680.561 1339.96 682.574 1341.01 685.07C1342.14 687.566 1342.7 690.585 1342.7 694.128C1342.7 699.281 1342.62 704.071 1342.46 708.5C1342.38 712.848 1342.34 717.195 1342.34 721.543C1342.34 723.476 1342.46 725.005 1342.7 726.133C1343.02 727.179 1343.47 727.984 1344.03 728.548C1344.59 729.112 1345.32 729.474 1346.2 729.635C1347.17 729.796 1348.26 729.877 1349.46 729.877V732.775C1347.13 733.741 1345.16 734.466 1343.55 734.949C1341.94 735.432 1340.2 735.674 1338.35 735.674C1335.37 735.674 1332.96 734.949 1331.11 733.5C1329.25 732.05 1327.85 729.957 1326.88 727.22C1325.03 729.796 1322.85 731.849 1320.36 733.379C1317.94 734.909 1314.88 735.674 1311.18 735.674C1308.12 735.674 1305.5 735.271 1303.33 734.466C1301.15 733.661 1299.34 732.534 1297.89 731.084C1296.53 729.555 1295.52 727.864 1294.87 726.012C1294.23 724.079 1293.91 722.147 1293.91 720.215C1293.91 717.558 1294.31 715.263 1295.12 713.331C1296 711.398 1297.21 709.748 1298.74 708.379C1300.35 707.01 1302.24 705.883 1304.42 704.997C1306.59 704.031 1309.05 703.226 1311.78 702.582C1315.16 701.777 1317.82 701.092 1319.75 700.529C1321.77 699.885 1323.26 699.281 1324.22 698.717C1325.19 698.073 1325.79 697.389 1326.03 696.664C1326.36 695.939 1326.52 695.054 1326.52 694.007C1326.52 691.109 1325.47 688.653 1323.38 686.64C1321.36 684.547 1318.55 683.5 1314.92 683.5C1313.55 683.5 1312.15 683.701 1310.7 684.104C1309.25 684.426 1307.84 684.909 1306.47 685.553C1305.18 686.197 1303.97 686.922 1302.85 687.727C1301.8 688.452 1300.99 689.257 1300.43 690.142H1299.58L1298.01 682.896Z" fill="#003580"/>
<path d="M1372.53 685.07C1374.79 681.688 1377.4 679.072 1380.38 677.22C1383.44 675.368 1386.9 674.442 1390.77 674.442C1396.81 674.442 1401.44 676.213 1404.66 679.756C1407.96 683.218 1409.61 688.854 1409.61 696.664C1409.61 700.77 1409.53 704.394 1409.37 707.534C1409.21 710.674 1409.13 713.814 1409.13 716.954C1409.13 719.53 1409.17 722.348 1409.25 725.408C1409.41 728.387 1409.57 731.286 1409.73 734.104C1408.68 733.943 1407.35 733.862 1405.74 733.862C1404.13 733.862 1402.44 733.862 1400.67 733.862C1398.9 733.862 1397.21 733.862 1395.6 733.862C1393.99 733.862 1392.66 733.943 1391.61 734.104C1392.18 729.917 1392.54 725.005 1392.7 719.369C1392.86 713.653 1392.94 707.131 1392.94 699.804C1392.94 694.732 1392.06 691.028 1390.28 688.693C1388.59 686.278 1386.18 685.07 1383.04 685.07C1379.42 685.07 1376.76 686.64 1375.07 689.78C1373.38 692.92 1372.53 697.268 1372.53 702.824V707.654C1372.53 712.566 1372.57 717.195 1372.65 721.543C1372.81 725.891 1373.1 730.078 1373.5 734.104C1372.45 733.943 1371.12 733.862 1369.51 733.862C1367.98 733.862 1366.29 733.862 1364.44 733.862C1362.59 733.862 1360.9 733.862 1359.37 733.862C1357.84 733.862 1356.51 733.943 1355.38 734.104C1355.78 730.078 1356.03 725.891 1356.11 721.543C1356.27 717.195 1356.35 712.566 1356.35 707.654V702.824C1356.35 697.912 1356.27 693.323 1356.11 689.055C1356.03 684.708 1355.78 680.36 1355.38 676.012C1356.83 676.173 1358.24 676.334 1359.61 676.495C1361.06 676.576 1362.51 676.616 1363.96 676.616C1365.41 676.616 1366.81 676.576 1368.18 676.495C1369.63 676.334 1371.16 676.173 1372.77 676.012L1372.29 685.07H1372.53Z" fill="#003580"/>
<path d="M1443.14 679.394C1437.67 679.394 1434.93 684.708 1434.93 695.336C1434.93 697.993 1435.17 700.247 1435.65 702.099C1436.14 703.87 1436.74 705.319 1437.47 706.447C1438.27 707.574 1439.12 708.379 1440 708.862C1440.97 709.345 1441.94 709.587 1442.9 709.587C1445.56 709.587 1447.53 708.419 1448.82 706.084C1450.11 703.749 1450.75 699.804 1450.75 694.249C1450.75 688.774 1450.03 684.949 1448.58 682.775C1447.13 680.521 1445.32 679.394 1443.14 679.394ZM1461.14 680.601C1463.15 682.051 1464.72 683.902 1465.85 686.157C1467.06 688.331 1467.66 690.948 1467.66 694.007C1467.66 696.986 1467.1 699.724 1465.97 702.22C1464.84 704.635 1463.23 706.728 1461.14 708.5C1459.13 710.271 1456.67 711.64 1453.77 712.606C1450.95 713.572 1447.77 714.055 1444.23 714.055C1443.34 714.055 1442.46 714.055 1441.57 714.055C1440.77 713.975 1439.84 713.935 1438.8 713.935C1437.83 713.935 1436.98 714.377 1436.26 715.263C1435.61 716.149 1435.29 717.155 1435.29 718.282C1435.29 720.215 1436.02 721.745 1437.47 722.872C1439 723.999 1441.37 724.603 1444.59 724.683L1453.53 724.804C1460.29 724.885 1465.24 726.173 1468.38 728.669C1471.6 731.084 1473.22 734.989 1473.22 740.384C1473.22 745.215 1472.21 749.24 1470.2 752.461C1468.26 755.762 1465.73 758.419 1462.59 760.432C1459.53 762.525 1456.11 764.015 1452.32 764.901C1448.54 765.786 1444.87 766.229 1441.33 766.229C1433.76 766.229 1427.84 764.74 1423.58 761.761C1419.39 758.862 1417.3 754.997 1417.3 750.166C1417.3 746.302 1418.34 743.162 1420.44 740.746C1422.61 738.411 1425.51 736.559 1429.13 735.191V734.949C1427.04 734.224 1425.35 733.137 1424.06 731.688C1422.85 730.158 1422.25 728.266 1422.25 726.012C1422.25 723.355 1423.26 720.778 1425.27 718.282C1427.36 715.786 1430.1 714.096 1433.48 713.21V712.968C1428.57 711.761 1424.79 709.587 1422.13 706.447C1419.39 703.226 1418.02 699.039 1418.02 693.886C1418.02 690.827 1418.63 688.089 1419.83 685.674C1421.12 683.258 1422.89 681.245 1425.15 679.635C1427.4 677.944 1430.1 676.656 1433.24 675.77C1436.38 674.885 1439.84 674.442 1443.63 674.442C1445.08 674.442 1446.56 674.522 1448.09 674.683C1449.62 674.764 1451.11 674.844 1452.56 674.925C1453.61 675.006 1454.66 675.086 1455.7 675.167C1456.83 675.167 1458.04 675.167 1459.33 675.167C1461.34 675.167 1463.43 675.167 1465.61 675.167C1467.78 675.086 1469.95 675.046 1472.13 675.046C1472.05 675.529 1471.97 676.012 1471.89 676.495C1471.89 676.978 1471.89 677.461 1471.89 677.944C1471.89 678.427 1471.89 678.911 1471.89 679.394C1471.97 679.877 1472.05 680.36 1472.13 680.843L1461.5 680.36L1461.14 680.601ZM1459.21 746.906C1459.21 744.571 1458.8 742.638 1458 741.108C1457.19 739.659 1456.03 738.532 1454.5 737.727C1453.05 736.922 1451.23 736.358 1449.06 736.036C1446.89 735.794 1444.43 735.674 1441.69 735.674C1437.51 735.674 1434.61 736.076 1433 736.881C1432.03 737.364 1430.99 738.532 1429.86 740.384C1428.81 742.236 1428.29 744.571 1428.29 747.389C1428.29 749.724 1428.69 751.736 1429.5 753.427C1430.38 755.199 1431.55 756.648 1433 757.775C1434.45 758.902 1436.1 759.748 1437.95 760.311C1439.88 760.955 1441.94 761.277 1444.11 761.277C1446.44 761.277 1448.54 760.875 1450.39 760.07C1452.24 759.345 1453.81 758.298 1455.1 756.93C1456.47 755.641 1457.47 754.112 1458.12 752.34C1458.84 750.649 1459.21 748.838 1459.21 746.906Z" fill="#003580"/>
<path d="M1480.34 684.828C1480.34 676.938 1480.26 669.692 1480.1 663.089C1479.94 656.487 1479.7 649.804 1479.37 643.041C1480.42 643.202 1481.75 643.363 1483.36 643.524C1484.97 643.605 1486.66 643.645 1488.43 643.645C1490.2 643.645 1491.89 643.605 1493.51 643.524C1495.12 643.363 1496.44 643.202 1497.49 643.041C1497.17 649.804 1496.93 656.487 1496.77 663.089C1496.6 669.692 1496.52 676.938 1496.52 684.828V692.679C1496.52 700.569 1496.6 707.815 1496.77 714.418C1496.93 721.02 1497.17 727.582 1497.49 734.104C1496.44 733.943 1495.12 733.862 1493.51 733.862C1491.89 733.862 1490.2 733.862 1488.43 733.862C1486.66 733.862 1484.97 733.862 1483.36 733.862C1481.75 733.862 1480.42 733.943 1479.37 734.104C1479.7 727.582 1479.94 721.02 1480.1 714.418C1480.26 707.815 1480.34 700.569 1480.34 692.679V684.828Z" fill="#003580"/>
<path d="M1538.47 715.746C1538.47 712.284 1538.47 709.667 1538.47 707.896C1538.55 706.044 1538.59 704.434 1538.59 703.065C1536.9 704.031 1535.09 704.836 1533.16 705.481C1531.31 706.044 1529.57 706.809 1527.96 707.775C1526.43 708.661 1525.15 709.909 1524.1 711.519C1523.13 713.129 1522.65 715.464 1522.65 718.524C1522.65 721.503 1523.25 723.798 1524.46 725.408C1525.75 726.938 1527.44 727.703 1529.53 727.703C1532.19 727.703 1534.32 726.696 1535.93 724.683C1537.63 722.67 1538.47 719.691 1538.47 715.746ZM1509.85 682.896C1513.23 680.158 1516.85 678.065 1520.72 676.616C1524.66 675.167 1528.57 674.442 1532.43 674.442C1535.65 674.442 1538.59 674.804 1541.25 675.529C1543.99 676.254 1546.32 677.421 1548.25 679.031C1550.27 680.561 1551.8 682.574 1552.84 685.07C1553.97 687.566 1554.53 690.585 1554.53 694.128C1554.53 699.281 1554.45 704.071 1554.29 708.5C1554.21 712.848 1554.17 717.195 1554.17 721.543C1554.17 723.476 1554.29 725.005 1554.53 726.133C1554.86 727.179 1555.3 727.984 1555.86 728.548C1556.43 729.112 1557.15 729.474 1558.04 729.635C1559 729.796 1560.09 729.877 1561.3 729.877V732.775C1558.96 733.741 1556.99 734.466 1555.38 734.949C1553.77 735.432 1552.04 735.674 1550.19 735.674C1547.21 735.674 1544.79 734.949 1542.94 733.5C1541.09 732.05 1539.68 729.957 1538.71 727.22C1536.86 729.796 1534.69 731.849 1532.19 733.379C1529.78 734.909 1526.72 735.674 1523.01 735.674C1519.95 735.674 1517.34 735.271 1515.16 734.466C1512.99 733.661 1511.18 732.534 1509.73 731.084C1508.36 729.555 1507.35 727.864 1506.71 726.012C1506.06 724.079 1505.74 722.147 1505.74 720.215C1505.74 717.558 1506.14 715.263 1506.95 713.331C1507.84 711.398 1509.04 709.748 1510.57 708.379C1512.18 707.01 1514.08 705.883 1516.25 704.997C1518.42 704.031 1520.88 703.226 1523.62 702.582C1527 701.777 1529.65 701.092 1531.59 700.529C1533.6 699.885 1535.09 699.281 1536.06 698.717C1537.02 698.073 1537.63 697.389 1537.87 696.664C1538.19 695.939 1538.35 695.054 1538.35 694.007C1538.35 691.109 1537.3 688.653 1535.21 686.64C1533.2 684.547 1530.38 683.5 1526.76 683.5C1525.39 683.5 1523.98 683.701 1522.53 684.104C1521.08 684.426 1519.67 684.909 1518.3 685.553C1517.01 686.197 1515.81 686.922 1514.68 687.727C1513.63 688.452 1512.83 689.257 1512.26 690.142H1511.42L1509.85 682.896Z" fill="#003580"/>
<path d="M1637.66 674.321C1637.66 671.262 1637.3 668.685 1636.58 666.592C1635.93 664.498 1635.01 662.848 1633.8 661.64C1632.67 660.352 1631.3 659.426 1629.69 658.862C1628.16 658.299 1626.55 658.017 1624.86 658.017H1622.08C1621.68 658.017 1621.28 658.017 1620.88 658.017C1620.47 658.017 1620.11 658.057 1619.79 658.138C1619.71 663.935 1619.63 669.651 1619.55 675.287C1619.55 680.843 1619.55 686.439 1619.55 692.075C1621.56 692.075 1623.61 691.873 1625.71 691.471C1627.88 691.068 1629.85 690.263 1631.63 689.055C1633.4 687.767 1634.85 685.956 1635.97 683.621C1637.1 681.286 1637.66 678.186 1637.66 674.321ZM1601.67 684.587C1601.67 677.904 1601.59 671.986 1601.43 666.833C1601.27 661.6 1601.03 656.366 1600.71 651.133C1602.08 651.294 1603.57 651.455 1605.18 651.616C1606.79 651.696 1608.6 651.737 1610.61 651.737C1613.43 651.737 1616.33 651.656 1619.31 651.495C1622.37 651.254 1625.35 651.133 1628.24 651.133C1633.96 651.133 1638.43 651.576 1641.65 652.461C1644.87 653.266 1647.41 654.474 1649.26 656.084C1651.83 658.178 1653.73 660.513 1654.93 663.089C1656.14 665.666 1656.75 668.766 1656.75 672.389C1656.75 676.978 1655.98 680.923 1654.45 684.225C1652.92 687.526 1650.75 690.223 1647.93 692.316C1645.19 694.329 1641.93 695.819 1638.15 696.785C1634.36 697.751 1630.22 698.234 1625.71 698.234H1619.55C1619.55 704.273 1619.59 710.311 1619.67 716.35C1619.83 722.308 1620.11 728.226 1620.51 734.104C1619.15 733.943 1617.66 733.862 1616.05 733.862C1614.44 733.862 1612.62 733.862 1610.61 733.862C1608.6 733.862 1606.79 733.862 1605.18 733.862C1603.57 733.862 1602.08 733.943 1600.71 734.104C1601.03 729.112 1601.27 724.039 1601.43 718.886C1601.59 713.653 1601.67 707.695 1601.67 701.012V684.587Z" fill="#003580"/>
<path d="M1680.5 690.988C1682.59 685.432 1685.13 681.366 1688.11 678.79C1691.09 676.133 1694.63 674.804 1698.73 674.804C1699.14 674.804 1699.46 674.844 1699.7 674.925C1700.02 674.925 1700.35 674.925 1700.67 674.925C1700.43 676.133 1700.22 677.421 1700.06 678.79C1699.98 680.158 1699.94 681.769 1699.94 683.621V687.485C1699.94 688.129 1699.94 688.814 1699.94 689.539C1699.94 690.263 1699.98 690.948 1700.06 691.592L1698.98 692.558C1698.17 692.075 1697.25 691.672 1696.2 691.35C1695.23 691.028 1694.11 690.867 1692.82 690.867C1689.19 690.867 1686.34 692.075 1684.24 694.49C1682.15 696.825 1681.1 699.603 1681.1 702.824V707.654C1681.1 712.566 1681.14 717.195 1681.22 721.543C1681.38 725.891 1681.67 730.078 1682.07 734.104C1681.02 733.943 1679.69 733.862 1678.08 733.862C1676.55 733.862 1674.86 733.862 1673.01 733.862C1671.16 733.862 1669.47 733.862 1667.94 733.862C1666.41 733.862 1665.08 733.943 1663.95 734.104C1664.35 730.078 1664.6 725.891 1664.68 721.543C1664.84 717.195 1664.92 712.566 1664.92 707.654V702.824C1664.92 697.912 1664.84 693.323 1664.68 689.055C1664.6 684.708 1664.35 680.36 1663.95 676.012C1665.32 676.173 1666.69 676.334 1668.06 676.495C1669.51 676.576 1670.92 676.616 1672.29 676.616C1673.65 676.616 1675.02 676.576 1676.39 676.495C1677.84 676.334 1679.25 676.173 1680.62 676.012L1680.26 690.746L1680.5 690.988Z" fill="#003580"/>
<path d="M1723.09 705.239C1723.09 708.46 1723.41 711.479 1724.06 714.297C1724.7 717.115 1725.67 719.571 1726.96 721.664C1728.32 723.677 1730.02 725.287 1732.03 726.495C1734.12 727.622 1736.54 728.186 1739.27 728.186C1744.83 728.186 1749.78 726.374 1754.13 722.751L1755.58 723.838L1752.92 730.601C1750.91 732.131 1748.49 733.339 1745.68 734.224C1742.86 735.191 1739.15 735.674 1734.56 735.674C1730.62 735.674 1726.88 735.11 1723.33 733.983C1719.79 732.936 1716.65 731.165 1713.91 728.669C1711.26 726.173 1709.12 723.033 1707.51 719.249C1705.98 715.384 1705.22 710.795 1705.22 705.481C1705.22 700.247 1705.9 695.698 1707.27 691.833C1708.72 687.968 1710.69 684.748 1713.19 682.171C1715.68 679.595 1718.62 677.663 1722 676.374C1725.47 675.086 1729.21 674.442 1733.24 674.442C1741.21 674.442 1747.29 676.777 1751.47 681.447C1755.74 686.117 1757.87 692.719 1757.87 701.253V703.79C1757.87 704.514 1757.83 704.997 1757.75 705.239H1723.09ZM1741.69 699.804C1741.53 693.766 1740.76 688.935 1739.4 685.311C1738.11 681.688 1735.89 679.877 1732.75 679.877C1730.98 679.877 1729.49 680.481 1728.28 681.688C1727.08 682.896 1726.11 684.466 1725.39 686.398C1724.66 688.25 1724.1 690.384 1723.69 692.799C1723.37 695.134 1723.17 697.469 1723.09 699.804H1741.69Z" fill="#003580"/>
<path d="M1782.39 685.07C1784.64 681.688 1787.26 679.072 1790.24 677.22C1793.3 675.368 1796.76 674.442 1800.63 674.442C1804.25 674.442 1807.35 675.448 1809.93 677.461C1812.58 679.394 1814.64 682.212 1816.09 685.915C1818.5 682.212 1821.32 679.394 1824.54 677.461C1827.76 675.448 1831.18 674.442 1834.81 674.442C1840.84 674.442 1845.47 676.213 1848.69 679.756C1852 683.218 1853.65 688.854 1853.65 696.664C1853.65 700.77 1853.57 704.394 1853.4 707.534C1853.24 710.674 1853.16 713.814 1853.16 716.954C1853.16 719.53 1853.2 722.348 1853.28 725.408C1853.45 728.387 1853.61 731.286 1853.77 734.104C1852.72 733.943 1851.39 733.862 1849.78 733.862C1848.17 733.862 1846.48 733.862 1844.71 733.862C1842.94 733.862 1841.25 733.862 1839.64 733.862C1838.03 733.862 1836.7 733.943 1835.65 734.104C1836.21 729.917 1836.58 725.005 1836.74 719.369C1836.9 713.653 1836.98 707.131 1836.98 699.804C1836.98 694.732 1836.13 691.028 1834.44 688.693C1832.75 686.278 1830.38 685.07 1827.32 685.07C1825.39 685.07 1823.78 685.513 1822.49 686.398C1821.28 687.284 1820.31 688.452 1819.59 689.901C1818.86 691.27 1818.38 692.759 1818.14 694.369C1817.9 695.98 1817.78 697.51 1817.78 698.959V707.654C1817.78 712.566 1817.82 717.195 1817.9 721.543C1818.06 725.891 1818.34 730.078 1818.74 734.104C1817.7 733.943 1816.37 733.862 1814.76 733.862C1813.23 733.862 1811.54 733.862 1809.69 733.862C1807.83 733.862 1806.14 733.862 1804.61 733.862C1803.08 733.862 1801.75 733.943 1800.63 734.104C1801.03 730.078 1801.27 725.891 1801.35 721.543C1801.51 717.195 1801.59 712.566 1801.59 707.654V700.287C1801.59 695.456 1800.99 691.712 1799.78 689.055C1798.57 686.398 1796.28 685.07 1792.9 685.07C1789.27 685.07 1786.62 686.64 1784.93 689.78C1783.24 692.92 1782.39 697.268 1782.39 702.824V707.654C1782.39 712.566 1782.43 717.195 1782.51 721.543C1782.67 725.891 1782.95 730.078 1783.36 734.104C1782.31 733.943 1780.98 733.862 1779.37 733.862C1777.84 733.862 1776.15 733.862 1774.3 733.862C1772.45 733.862 1770.76 733.862 1769.23 733.862C1767.7 733.862 1766.37 733.943 1765.24 734.104C1765.64 730.078 1765.88 725.891 1765.97 721.543C1766.13 717.195 1766.21 712.566 1766.21 707.654V702.824C1766.21 697.912 1766.13 693.323 1765.97 689.055C1765.88 684.708 1765.64 680.36 1765.24 676.012C1766.69 676.173 1768.1 676.334 1769.47 676.495C1770.92 676.576 1772.37 676.616 1773.82 676.616C1775.26 676.616 1776.67 676.576 1778.04 676.495C1779.49 676.334 1781.02 676.173 1782.63 676.012L1782.15 685.07H1782.39Z" fill="#003580"/>
<path d="M1864.64 653.186C1864.64 650.529 1865.56 648.274 1867.42 646.423C1869.27 644.571 1871.52 643.645 1874.18 643.645C1876.84 643.645 1879.09 644.571 1880.94 646.423C1882.79 648.274 1883.72 650.529 1883.72 653.186C1883.72 655.843 1882.79 658.097 1880.94 659.949C1879.09 661.801 1876.84 662.727 1874.18 662.727C1871.52 662.727 1869.27 661.801 1867.42 659.949C1865.56 658.097 1864.64 655.843 1864.64 653.186ZM1866.09 702.824C1866.09 697.912 1866.01 693.323 1865.85 689.055C1865.76 684.708 1865.52 680.36 1865.12 676.012C1866.25 676.173 1867.58 676.334 1869.11 676.495C1870.64 676.576 1872.33 676.616 1874.18 676.616C1877.96 676.616 1880.98 676.415 1883.24 676.012C1882.83 680.36 1882.55 684.708 1882.39 689.055C1882.31 693.323 1882.27 697.912 1882.27 702.824V707.654C1882.27 712.566 1882.31 717.195 1882.39 721.543C1882.55 725.891 1882.83 730.078 1883.24 734.104C1882.19 733.943 1880.86 733.862 1879.25 733.862C1877.72 733.862 1876.03 733.862 1874.18 733.862C1872.33 733.862 1870.64 733.862 1869.11 733.862C1867.58 733.862 1866.25 733.943 1865.12 734.104C1865.52 730.078 1865.76 725.891 1865.85 721.543C1866.01 717.195 1866.09 712.566 1866.09 707.654V702.824Z" fill="#003580"/>
<path d="M1910.45 705.239C1910.45 708.46 1910.77 711.479 1911.42 714.297C1912.06 717.115 1913.03 719.571 1914.31 721.664C1915.68 723.677 1917.37 725.287 1919.39 726.495C1921.48 727.622 1923.9 728.186 1926.63 728.186C1932.19 728.186 1937.14 726.374 1941.49 722.751L1942.94 723.838L1940.28 730.601C1938.27 732.131 1935.85 733.339 1933.03 734.224C1930.22 735.191 1926.51 735.674 1921.92 735.674C1917.98 735.674 1914.23 735.11 1910.69 733.983C1907.15 732.936 1904.01 731.165 1901.27 728.669C1898.61 726.173 1896.48 723.033 1894.87 719.249C1893.34 715.384 1892.57 710.795 1892.57 705.481C1892.57 700.247 1893.26 695.698 1894.63 691.833C1896.08 687.968 1898.05 684.748 1900.55 682.171C1903.04 679.595 1905.98 677.663 1909.36 676.374C1912.82 675.086 1916.57 674.442 1920.59 674.442C1928.57 674.442 1934.64 676.777 1938.83 681.447C1943.1 686.117 1945.23 692.719 1945.23 701.253V703.79C1945.23 704.514 1945.19 704.997 1945.11 705.239H1910.45ZM1929.05 699.804C1928.89 693.766 1928.12 688.935 1926.75 685.311C1925.47 681.688 1923.25 679.877 1920.11 679.877C1918.34 679.877 1916.85 680.481 1915.64 681.688C1914.43 682.896 1913.47 684.466 1912.74 686.398C1912.02 688.25 1911.46 690.384 1911.05 692.799C1910.73 695.134 1910.53 697.469 1910.45 699.804H1929.05Z" fill="#003580"/>
<path d="M1970.35 690.988C1972.45 685.432 1974.98 681.366 1977.96 678.79C1980.94 676.133 1984.48 674.804 1988.59 674.804C1988.99 674.804 1989.31 674.844 1989.56 674.925C1989.88 674.925 1990.2 674.925 1990.52 674.925C1990.28 676.133 1990.08 677.421 1989.92 678.79C1989.84 680.158 1989.8 681.769 1989.8 683.621V687.485C1989.8 688.129 1989.8 688.814 1989.8 689.539C1989.8 690.263 1989.84 690.948 1989.92 691.592L1988.83 692.558C1988.03 692.075 1987.1 691.672 1986.05 691.35C1985.09 691.028 1983.96 690.867 1982.67 690.867C1979.05 690.867 1976.19 692.075 1974.1 694.49C1972 696.825 1970.96 699.603 1970.96 702.824V707.654C1970.96 712.566 1971 717.195 1971.08 721.543C1971.24 725.891 1971.52 730.078 1971.92 734.104C1970.88 733.943 1969.55 733.862 1967.94 733.862C1966.41 733.862 1964.72 733.862 1962.86 733.862C1961.01 733.862 1959.32 733.862 1957.79 733.862C1956.26 733.862 1954.93 733.943 1953.81 734.104C1954.21 730.078 1954.45 725.891 1954.53 721.543C1954.69 717.195 1954.77 712.566 1954.77 707.654V702.824C1954.77 697.912 1954.69 693.323 1954.53 689.055C1954.45 684.708 1954.21 680.36 1953.81 676.012C1955.18 676.173 1956.54 676.334 1957.91 676.495C1959.36 676.576 1960.77 676.616 1962.14 676.616C1963.51 676.616 1964.88 676.576 1966.25 676.495C1967.7 676.334 1969.1 676.173 1970.47 676.012L1970.11 690.746L1970.35 690.988Z" fill="#003580"/>
<path d="M2033.03 684.587C2033.03 677.904 2032.95 671.986 2032.79 666.833C2032.63 661.6 2032.39 656.366 2032.07 651.133C2033.44 651.294 2034.92 651.455 2036.53 651.616C2038.15 651.696 2039.96 651.737 2041.97 651.737C2043.98 651.737 2045.79 651.696 2047.4 651.616C2049.01 651.455 2050.5 651.294 2051.87 651.133C2051.55 656.366 2051.31 661.6 2051.15 666.833C2050.99 671.986 2050.91 677.904 2050.91 684.587V701.012C2050.91 705.601 2050.91 710.03 2050.91 714.297C2050.99 718.564 2051.07 722.268 2051.15 725.408C2055.74 725.408 2060.33 725.287 2064.92 725.046C2069.51 724.804 2074.14 724.402 2078.81 723.838C2078.64 724.724 2078.52 725.529 2078.44 726.253C2078.36 726.978 2078.32 727.984 2078.32 729.273C2078.32 730.561 2078.36 731.567 2078.44 732.292C2078.52 733.017 2078.64 733.621 2078.81 734.104C2076.63 734.023 2073.93 733.943 2070.71 733.862C2067.57 733.862 2063.23 733.862 2057.67 733.862C2052.76 733.862 2048.77 733.862 2045.71 733.862C2042.73 733.862 2040.32 733.862 2038.47 733.862C2036.7 733.862 2035.33 733.862 2034.36 733.862C2033.48 733.943 2032.71 734.023 2032.07 734.104C2032.39 729.112 2032.63 724.039 2032.79 718.886C2032.95 713.653 2033.03 707.695 2033.03 701.012V684.587Z" fill="#003580"/>
<path d="M2102.11 705.239C2102.11 708.46 2102.44 711.479 2103.08 714.297C2103.72 717.115 2104.69 719.571 2105.98 721.664C2107.35 723.677 2109.04 725.287 2111.05 726.495C2113.15 727.622 2115.56 728.186 2118.3 728.186C2123.85 728.186 2128.81 726.374 2133.15 722.751L2134.6 723.838L2131.95 730.601C2129.93 732.131 2127.52 733.339 2124.7 734.224C2121.88 735.191 2118.18 735.674 2113.59 735.674C2109.64 735.674 2105.9 735.11 2102.36 733.983C2098.81 732.936 2095.67 731.165 2092.94 728.669C2090.28 726.173 2088.15 723.033 2086.53 719.249C2085.01 715.384 2084.24 710.795 2084.24 705.481C2084.24 700.247 2084.92 695.698 2086.29 691.833C2087.74 687.968 2089.72 684.748 2092.21 682.171C2094.71 679.595 2097.65 677.663 2101.03 676.374C2104.49 675.086 2108.23 674.442 2112.26 674.442C2120.23 674.442 2126.31 676.777 2130.5 681.447C2134.76 686.117 2136.9 692.719 2136.9 701.253V703.79C2136.9 704.514 2136.86 704.997 2136.78 705.239H2102.11ZM2120.71 699.804C2120.55 693.766 2119.79 688.935 2118.42 685.311C2117.13 681.688 2114.92 679.877 2111.78 679.877C2110.01 679.877 2108.52 680.481 2107.31 681.688C2106.1 682.896 2105.13 684.466 2104.41 686.398C2103.68 688.25 2103.12 690.384 2102.72 692.799C2102.4 695.134 2102.19 697.469 2102.11 699.804H2120.71Z" fill="#003580"/>
<path d="M2173.85 715.746C2173.85 712.284 2173.85 709.667 2173.85 707.896C2173.93 706.044 2173.97 704.434 2173.97 703.065C2172.28 704.031 2170.47 704.836 2168.54 705.481C2166.69 706.044 2164.96 706.809 2163.35 707.775C2161.82 708.661 2160.53 709.909 2159.48 711.519C2158.52 713.129 2158.03 715.464 2158.03 718.524C2158.03 721.503 2158.64 723.798 2159.84 725.408C2161.13 726.938 2162.82 727.703 2164.92 727.703C2167.57 727.703 2169.71 726.696 2171.32 724.683C2173.01 722.67 2173.85 719.691 2173.85 715.746ZM2145.23 682.896C2148.61 680.158 2152.24 678.065 2156.1 676.616C2160.05 675.167 2163.95 674.442 2167.81 674.442C2171.04 674.442 2173.97 674.804 2176.63 675.529C2179.37 676.254 2181.7 677.421 2183.64 679.031C2185.65 680.561 2187.18 682.574 2188.23 685.07C2189.35 687.566 2189.92 690.585 2189.92 694.128C2189.92 699.281 2189.84 704.071 2189.67 708.5C2189.59 712.848 2189.55 717.195 2189.55 721.543C2189.55 723.476 2189.67 725.005 2189.92 726.133C2190.24 727.179 2190.68 727.984 2191.24 728.548C2191.81 729.112 2192.53 729.474 2193.42 729.635C2194.38 729.796 2195.47 729.877 2196.68 729.877V732.775C2194.34 733.741 2192.37 734.466 2190.76 734.949C2189.15 735.432 2187.42 735.674 2185.57 735.674C2182.59 735.674 2180.17 734.949 2178.32 733.5C2176.47 732.05 2175.06 729.957 2174.1 727.22C2172.24 729.796 2170.07 731.849 2167.57 733.379C2165.16 734.909 2162.1 735.674 2158.39 735.674C2155.33 735.674 2152.72 735.271 2150.54 734.466C2148.37 733.661 2146.56 732.534 2145.11 731.084C2143.74 729.555 2142.73 727.864 2142.09 726.012C2141.45 724.079 2141.12 722.147 2141.12 720.215C2141.12 717.558 2141.53 715.263 2142.33 713.331C2143.22 711.398 2144.43 709.748 2145.95 708.379C2147.57 707.01 2149.46 705.883 2151.63 704.997C2153.81 704.031 2156.26 703.226 2159 702.582C2162.38 701.777 2165.04 701.092 2166.97 700.529C2168.98 699.885 2170.47 699.281 2171.44 698.717C2172.4 698.073 2173.01 697.389 2173.25 696.664C2173.57 695.939 2173.73 695.054 2173.73 694.007C2173.73 691.109 2172.69 688.653 2170.59 686.64C2168.58 684.547 2165.76 683.5 2162.14 683.5C2160.77 683.5 2159.36 683.701 2157.91 684.104C2156.46 684.426 2155.05 684.909 2153.68 685.553C2152.4 686.197 2151.19 686.922 2150.06 687.727C2149.01 688.452 2148.21 689.257 2147.65 690.142H2146.8L2145.23 682.896Z" fill="#003580"/>
<path d="M2225.67 679.394C2220.19 679.394 2217.45 684.708 2217.45 695.336C2217.45 697.993 2217.69 700.247 2218.18 702.099C2218.66 703.87 2219.26 705.319 2219.99 706.447C2220.79 707.574 2221.64 708.379 2222.52 708.862C2223.49 709.345 2224.46 709.587 2225.42 709.587C2228.08 709.587 2230.05 708.419 2231.34 706.084C2232.63 703.749 2233.27 699.804 2233.27 694.249C2233.27 688.774 2232.55 684.949 2231.1 682.775C2229.65 680.521 2227.84 679.394 2225.67 679.394ZM2243.66 680.601C2245.67 682.051 2247.24 683.902 2248.37 686.157C2249.58 688.331 2250.18 690.948 2250.18 694.007C2250.18 696.986 2249.62 699.724 2248.49 702.22C2247.36 704.635 2245.75 706.728 2243.66 708.5C2241.65 710.271 2239.19 711.64 2236.29 712.606C2233.47 713.572 2230.29 714.055 2226.75 714.055C2225.87 714.055 2224.98 714.055 2224.09 714.055C2223.29 713.975 2222.36 713.935 2221.32 713.935C2220.35 713.935 2219.51 714.377 2218.78 715.263C2218.14 716.149 2217.81 717.155 2217.81 718.282C2217.81 720.215 2218.54 721.745 2219.99 722.872C2221.52 723.999 2223.89 724.603 2227.11 724.683L2236.05 724.804C2242.81 724.885 2247.77 726.173 2250.91 728.669C2254.13 731.084 2255.74 734.989 2255.74 740.384C2255.74 745.215 2254.73 749.24 2252.72 752.461C2250.79 755.762 2248.25 758.419 2245.11 760.432C2242.05 762.525 2238.63 764.015 2234.84 764.901C2231.06 765.786 2227.4 766.229 2223.85 766.229C2216.28 766.229 2210.37 764.74 2206.1 761.761C2201.91 758.862 2199.82 754.997 2199.82 750.166C2199.82 746.302 2200.87 743.162 2202.96 740.746C2205.13 738.411 2208.03 736.559 2211.66 735.191V734.949C2209.56 734.224 2207.87 733.137 2206.58 731.688C2205.38 730.158 2204.77 728.266 2204.77 726.012C2204.77 723.355 2205.78 720.778 2207.79 718.282C2209.88 715.786 2212.62 714.096 2216 713.21V712.968C2211.09 711.761 2207.31 709.587 2204.65 706.447C2201.91 703.226 2200.54 699.039 2200.54 693.886C2200.54 690.827 2201.15 688.089 2202.36 685.674C2203.64 683.258 2205.42 681.245 2207.67 679.635C2209.92 677.944 2212.62 676.656 2215.76 675.77C2218.9 674.885 2222.36 674.442 2226.15 674.442C2227.6 674.442 2229.09 674.522 2230.62 674.683C2232.15 674.764 2233.64 674.844 2235.09 674.925C2236.13 675.006 2237.18 675.086 2238.23 675.167C2239.35 675.167 2240.56 675.167 2241.85 675.167C2243.86 675.167 2245.95 675.167 2248.13 675.167C2250.3 675.086 2252.48 675.046 2254.65 675.046C2254.57 675.529 2254.49 676.012 2254.41 676.495C2254.41 676.978 2254.41 677.461 2254.41 677.944C2254.41 678.427 2254.41 678.911 2254.41 679.394C2254.49 679.877 2254.57 680.36 2254.65 680.843L2244.02 680.36L2243.66 680.601ZM2241.73 746.906C2241.73 744.571 2241.33 742.638 2240.52 741.108C2239.71 739.659 2238.55 738.532 2237.02 737.727C2235.57 736.922 2233.76 736.358 2231.58 736.036C2229.41 735.794 2226.95 735.674 2224.22 735.674C2220.03 735.674 2217.13 736.076 2215.52 736.881C2214.55 737.364 2213.51 738.532 2212.38 740.384C2211.33 742.236 2210.81 744.571 2210.81 747.389C2210.81 749.724 2211.21 751.736 2212.02 753.427C2212.9 755.199 2214.07 756.648 2215.52 757.775C2216.97 758.902 2218.62 759.748 2220.47 760.311C2222.4 760.955 2224.46 761.277 2226.63 761.277C2228.97 761.277 2231.06 760.875 2232.91 760.07C2234.76 759.345 2236.33 758.298 2237.62 756.93C2238.99 755.641 2240 754.112 2240.64 752.34C2241.37 750.649 2241.73 748.838 2241.73 746.906Z" fill="#003580"/>
<path d="M2297.77 725.408C2295.51 728.79 2292.85 731.366 2289.8 733.137C2286.82 734.828 2283.39 735.674 2279.53 735.674C2273.49 735.674 2268.82 733.983 2265.52 730.601C2262.3 727.22 2260.69 721.624 2260.69 713.814C2260.69 709.708 2260.77 706.084 2260.93 702.944C2261.09 699.804 2261.17 696.664 2261.17 693.524C2261.17 690.948 2261.09 688.17 2260.93 685.191C2260.85 682.131 2260.73 679.072 2260.57 676.012C2261.62 676.173 2262.94 676.334 2264.55 676.495C2266.16 676.576 2267.85 676.616 2269.63 676.616C2271.4 676.616 2273.09 676.576 2274.7 676.495C2276.31 676.334 2277.64 676.173 2278.68 676.012C2278.12 680.36 2277.76 685.392 2277.6 691.109C2277.44 696.825 2277.36 703.347 2277.36 710.674C2277.36 715.746 2278.2 719.49 2279.89 721.906C2281.66 724.241 2284.12 725.408 2287.26 725.408C2290.88 725.408 2293.54 723.838 2295.23 720.698C2296.92 717.558 2297.77 713.21 2297.77 707.654V702.824C2297.77 697.912 2297.69 693.323 2297.52 689.055C2297.44 684.708 2297.2 680.36 2296.8 676.012C2299.05 676.415 2302.07 676.616 2305.86 676.616C2307.71 676.616 2309.4 676.576 2310.93 676.495C2312.46 676.334 2313.79 676.173 2314.92 676.012C2314.51 680.36 2314.23 684.708 2314.07 689.055C2313.99 693.323 2313.95 697.912 2313.95 702.824V707.654C2313.95 712.566 2313.99 717.195 2314.07 721.543C2314.23 725.891 2314.51 730.078 2314.92 734.104C2313.47 733.943 2312.02 733.862 2310.57 733.862C2309.2 733.862 2307.79 733.862 2306.34 733.862C2304.89 733.862 2303.44 733.862 2301.99 733.862C2300.62 733.862 2299.14 733.943 2297.52 734.104L2298.01 725.408H2297.77Z" fill="#003580"/>
<path d="M2340.72 705.239C2340.72 708.46 2341.04 711.479 2341.69 714.297C2342.33 717.115 2343.3 719.571 2344.59 721.664C2345.95 723.677 2347.65 725.287 2349.66 726.495C2351.75 727.622 2354.17 728.186 2356.9 728.186C2362.46 728.186 2367.41 726.374 2371.76 722.751L2373.21 723.838L2370.55 730.601C2368.54 732.131 2366.12 733.339 2363.31 734.224C2360.49 735.191 2356.78 735.674 2352.19 735.674C2348.25 735.674 2344.51 735.11 2340.96 733.983C2337.42 732.936 2334.28 731.165 2331.54 728.669C2328.89 726.173 2326.75 723.033 2325.14 719.249C2323.61 715.384 2322.85 710.795 2322.85 705.481C2322.85 700.247 2323.53 695.698 2324.9 691.833C2326.35 687.968 2328.32 684.748 2330.82 682.171C2333.31 679.595 2336.25 677.663 2339.63 676.374C2343.1 675.086 2346.84 674.442 2350.87 674.442C2358.84 674.442 2364.92 676.777 2369.1 681.447C2373.37 686.117 2375.5 692.719 2375.5 701.253V703.79C2375.5 704.514 2375.46 704.997 2375.38 705.239H2340.72ZM2359.32 699.804C2359.16 693.766 2358.39 688.935 2357.03 685.311C2355.74 681.688 2353.52 679.877 2350.38 679.877C2348.61 679.877 2347.12 680.481 2345.91 681.688C2344.71 682.896 2343.74 684.466 2343.02 686.398C2342.29 688.25 2341.73 690.384 2341.32 692.799C2341 695.134 2340.8 697.469 2340.72 699.804H2359.32Z" fill="#003580"/>
<defs>
<linearGradient id="paint0_linear_20_12" x1="726.537" y1="507.155" x2="150.887" y2="405.185" gradientUnits="userSpaceOnUse">
<stop stop-color="#006A4E"/>
<stop offset="1" stop-color="#F42A41"/>
</linearGradient>
</defs>
</svg>
