<?xml version="1.0" standalone="no"?>
<!DOCTYPE svg PUBLIC "-//W3C//DTD SVG 20010904//EN"
 "http://www.w3.org/TR/2001/REC-SVG-20010904/DTD/svg10.dtd">
<svg version="1.0" xmlns="http://www.w3.org/2000/svg"
 width="501.000000pt" height="498.000000pt" viewBox="0 0 501.000000 498.000000"
 preserveAspectRatio="xMidYMid meet">

<g transform="translate(0.000000,498.000000) scale(0.100000,-0.100000)"
fill="#000000" stroke="none">
<path d="M2140 4740 c-94 -12 -248 -56 -332 -95 -81 -37 -130 -90 -149 -158
-20 -74 14 -127 100 -156 81 -27 131 -4 131 61 0 26 -44 143 -62 162 -12 15
-10 62 5 74 22 19 190 42 305 42 131 0 337 -30 414 -61 29 -12 71 -27 93 -34
34 -10 83 -36 230 -119 72 -41 183 -140 259 -230 63 -75 101 -143 131 -235 25
-74 27 -91 23 -203 -4 -108 -8 -132 -34 -194 -16 -39 -38 -84 -49 -100 -38
-56 -171 -176 -230 -209 -137 -77 -315 -125 -462 -125 -79 0 -84 -19 -5 -22
183 -5 309 3 402 28 52 14 102 27 110 29 34 7 129 49 190 82 177 99 305 273
328 448 15 114 -5 254 -50 355 -24 54 -85 157 -107 181 -9 9 -34 36 -55 60
-90 100 -237 208 -376 276 -179 88 -397 141 -607 148 -76 2 -167 0 -203 -5z"/>
<path d="M1650 4124 c-109 -17 -211 -84 -241 -159 -23 -58 -27 -117 -11 -164
27 -83 133 -228 155 -214 6 3 7 1 4 -5 -17 -27 174 -160 331 -231 227 -103
541 -137 787 -85 243 51 439 196 506 374 32 86 32 197 -1 290 -23 64 -96 190
-111 190 -4 0 -1 -21 7 -47 24 -80 18 -174 -16 -260 -35 -88 -44 -102 -109
-168 -57 -58 -175 -127 -276 -162 -229 -78 -533 -70 -804 21 -38 13 -53 36
-23 36 43 0 171 40 208 65 156 106 152 297 -8 419 -115 88 -251 122 -398 100z"/>
<path d="M1481 3352 c13 -10 56 -38 94 -62 367 -232 789 -644 1037 -1015 15
-22 44 -65 65 -95 21 -30 58 -89 82 -130 24 -41 55 -91 68 -111 37 -56 32 -65
-38 -73 -95 -11 -508 -8 -601 4 -119 15 -212 32 -222 41 -5 4 7 36 26 71 89
161 132 334 131 518 -1 115 -31 312 -50 331 -7 7 -16 -27 -27 -96 -25 -163
-94 -325 -204 -484 -74 -106 -202 -261 -217 -261 -13 0 -228 81 -265 99 -19
10 -71 35 -115 57 -44 21 -91 46 -105 54 -262 170 -418 299 -531 440 -43 53
-138 194 -158 232 -25 48 -23 23 3 -60 53 -167 168 -367 302 -522 74 -86 107
-118 214 -208 46 -39 209 -152 218 -152 4 0 31 -16 59 -35 29 -19 56 -35 60
-35 7 0 101 -47 111 -55 1 -1 0 -9 -4 -18 -8 -23 -283 -247 -303 -247 -4 0
-16 -9 -25 -19 -25 -27 -437 -301 -453 -301 -5 0 -28 -14 -53 -31 l-45 -30 55
6 c30 4 102 20 159 36 58 16 111 29 119 29 31 0 354 122 462 175 144 70 311
177 383 246 16 16 39 29 51 29 12 0 73 -14 136 -30 182 -48 341 -64 610 -64
152 1 277 6 355 16 66 9 124 12 129 8 21 -21 151 -336 202 -493 20 -62 40
-121 45 -132 25 -63 -15 470 -46 600 -8 36 -13 71 -10 75 3 5 22 12 43 16 50
9 225 68 298 100 454 203 747 446 957 793 40 68 114 225 122 260 4 17 10 31
13 32 137 10 157 16 207 69 27 28 30 38 30 94 0 58 -3 66 -35 103 -74 86 -220
117 -322 70 -41 -18 -59 -33 -71 -60 -22 -45 -22 -114 1 -154 19 -36 76 -84
121 -103 l30 -12 -19 -37 c-38 -75 -184 -248 -300 -353 -196 -180 -404 -309
-675 -418 -157 -63 -409 -139 -462 -140 -7 0 -20 25 -29 56 -8 30 -22 67 -29
81 -8 14 -19 46 -27 69 -7 24 -18 44 -26 44 -7 0 -10 4 -7 10 3 5 -5 29 -19
54 -13 24 -22 47 -19 50 4 3 -1 6 -11 6 -9 0 -14 4 -11 10 10 17 -146 270
-167 270 -6 0 -9 3 -5 6 9 10 -136 175 -228 261 -77 72 -257 213 -271 213 -4
0 -21 11 -38 24 -18 13 -95 55 -172 94 -149 75 -510 202 -573 202 l-34 0 24
-18z"/>
<path d="M1355 953 c-57 -7 -180 -35 -212 -49 -18 -7 -33 -19 -33 -27 0 -24
44 -28 120 -12 39 8 83 15 97 15 24 0 24 -2 18 -42 -4 -24 -31 -119 -60 -213
-84 -271 -83 -324 7 -294 66 21 76 36 94 129 27 149 43 213 69 295 45 139 42
135 102 135 55 0 139 15 161 29 7 4 10 15 6 24 -5 15 -25 17 -173 16 -91 -1
-179 -4 -196 -6z"/>
<path d="M1788 950 c-27 -17 -21 -38 11 -45 47 -10 54 -26 49 -117 -3 -64 1
-104 19 -177 13 -51 23 -118 23 -148 0 -48 -3 -57 -30 -80 -35 -29 -37 -39
-10 -53 31 -17 162 15 240 58 178 98 253 194 202 259 -24 31 -108 70 -169 78
-67 9 -69 27 -5 51 38 14 114 58 142 81 13 11 -46 43 -98 53 -31 6 -77 18
-102 26 -57 20 -248 29 -272 14z m293 -81 c31 -16 22 -39 -23 -59 -63 -29 -84
-26 -92 11 -3 17 -1 40 5 51 9 17 17 19 51 14 22 -4 49 -11 59 -17z m54 -214
c37 -18 58 -56 49 -91 -6 -24 -75 -80 -125 -101 -31 -13 -35 -7 -63 88 -17 59
-20 101 -9 112 12 13 115 7 148 -8z"/>
<path d="M2425 946 c-5 -3 -26 -7 -46 -10 -19 -4 -44 -12 -54 -20 -16 -12 -17
-16 -6 -30 7 -9 22 -16 33 -16 17 0 19 -4 11 -32 -16 -65 -6 -307 16 -398 25
-99 38 -113 99 -107 77 8 96 44 67 127 -8 23 -15 55 -15 70 0 26 5 29 78 49
43 12 83 21 89 21 7 0 54 18 107 41 98 42 137 77 151 132 10 38 -10 64 -74 96
-90 46 -210 73 -336 77 -60 2 -114 2 -120 0z m243 -87 c89 -23 136 -48 140
-73 5 -25 -71 -92 -126 -110 -62 -22 -156 -21 -177 0 -16 17 -16 57 1 147 4
19 1 29 -10 33 -9 3 -16 10 -16 15 0 16 109 9 188 -12z"/>
<path d="M3027 933 c-22 -21 5 -235 53 -428 35 -142 57 -172 119 -160 20 4
117 10 216 14 159 6 186 10 228 30 50 24 57 39 29 64 -34 31 -68 37 -114 21
-24 -8 -96 -20 -161 -26 -99 -9 -120 -8 -140 5 -31 20 -65 131 -82 274 -18
139 -29 178 -58 198 -22 15 -78 20 -90 8z"/>
</g>
</svg>
